<svg xmlns="http://www.w3.org/2000/svg" xmlns:xlink="http://www.w3.org/1999/xlink" width="64" height="64" version="1.1" viewBox="0 0 16.933 16.933"><rect width="15.875" height="12.171" x=".529" y="2.381" fill="none" stroke="#262a2f" stroke-opacity=".784" stroke-width=".529" ry=".265" style="paint-order:markers stroke fill"/><rect width="15.875" height="12.171" x=".529" y="2.381" fill="#636a78" ry=".265" style="paint-order:markers stroke fill"/><path fill="#4a4f59" d="m0.794 2.381a0.264 0.264 0 0 0-0.265 0.265v0.793h15.875v-0.793a0.264 0.264 0 0 0-0.264-0.265z" style="paint-order:stroke markers fill"/><rect width="1.058" height=".529" x="1.587" y="2.645" opacity=".35" ry=".265" style="paint-order:stroke markers fill"/><rect width="2.646" height=".529" x="7.144" y="2.645" opacity=".35" ry=".265" style="paint-order:stroke markers fill"/><rect width=".529" height=".529" x="15.081" y="2.645" fill="#fff" opacity=".8" ry=".265" style="paint-order:stroke markers fill"/><rect width=".794" height=".529" x="14.023" y="2.645" opacity=".35" ry=".265" style="paint-order:stroke markers fill"/><rect width=".529" height=".529" x="13.229" y="2.645" opacity=".35" ry=".265" style="paint-order:stroke markers fill"/><path fill="#fff" stroke-width="3.78" d="m15.002 50.998c-1.1077 0-2 0.89233-2 2v2.002h38v-2.002c0-1.1077-0.89233-2-2-2h-34z" opacity=".15" transform="scale(.26458)" style="paint-order:stroke markers fill"/><g fill="#999ea7"><rect width="1.323" height="1.323" x="4.498" y="12.7" ry=".132" style="paint-order:stroke markers fill"/><rect width="1.323" height="1.323" x="6.703" y="12.7" ry=".132" style="paint-order:stroke markers fill"/><rect width="1.323" height="1.323" x="8.908" y="12.7" ry=".132" style="paint-order:stroke markers fill"/><rect width="1.323" height="1.323" x="11.113" y="12.7" ry=".132" style="paint-order:stroke markers fill"/></g></svg>