<svg xmlns="http://www.w3.org/2000/svg" width="64" height="64" version="1.1" viewBox="0 0 16.933 16.933"><defs><clipPath id="c"><rect width="13.758" height="13.758" x="1.587" y="1.587" fill="#71c947" ry=".794"/></clipPath><linearGradient id="e" x1="388.57" x2="428.57" y1="528.79" y2="528.79" gradientTransform="matrix(1.3,0,0,1.3,-499.14,-648.92)" gradientUnits="userSpaceOnUse"><stop offset="0" stop-color="#9c6d42"/><stop offset="1" stop-color="#9c6d42" stop-opacity="0"/></linearGradient><clipPath id="a"><rect width="13.758" height="13.758" x="1.587" y="1.587" fill="#71c947" ry=".794"/></clipPath></defs><rect width="13.758" height="13.758" x="1.587" y="1.587" fill="none" clip-path="url(#c)"/><rect width="13.758" height="13.758" x="1.587" y="1.587" fill="none"/><g transform="translate(-3.2919e-5 -3.2814e-5)"><path fill="#45a943" stroke-width="204.07" d="m51.502 6v6.5h6.498v-3.5c0-1.6619-1.3381-3-3-3z" transform="matrix(.26458 0 0 .26458 3.2916e-5 3.2916e-5)"/><path fill="#76bd74" stroke-width="204.07" d="m9 6c-1.6619 0-3 1.3381-3 3v46c0 1.6619 1.3381 3 3 3h46c1.6619 0 3-1.3381 3-3v-46c0-1.6619-1.3381-3-3-3z" transform="matrix(.26458 0 0 .26458 3.2916e-5 3.2916e-5)"/><path fill="#5bb059" stroke-width="204.07" d="m6 32v23c0 1.6619 1.3381 3 3 3h23v-26z" transform="matrix(.26458 0 0 .26458 3.2916e-5 3.2916e-5)"/><path fill="#8f6335" stroke-width="204.07" d="m6 51.502v3.498c0 1.6619 1.3381 3 3 3h3.5v-6.498z" transform="matrix(.26458 0 0 .26458 3.2916e-5 3.2916e-5)"/><rect width="1.72" height="1.72" x="3.307" y="13.626" fill="#a2703c" stroke-width="53.991" ry="0"/><rect width="1.72" height="1.72" x="5.027" y="13.626" fill="#875d32" stroke-width="53.991" ry="0"/><rect width="1.72" height="1.72" x="6.747" y="13.626" fill="#b77939" stroke-width="53.991" ry="0"/><rect width="1.72" height="1.72" x="8.466" y="13.626" fill="#956837" stroke-width="53.991" ry="0"/><rect width="1.72" height="1.72" x="10.186" y="13.626" fill="#a2703c" stroke-width="53.991" ry="0"/><rect width="1.72" height="1.72" x="11.906" y="13.626" fill="#956837" stroke-width="53.991" ry="0"/><path fill="#a2703c" stroke-width="204.07" d="m51.502 51.502v6.498h3.498c1.6619 0 3-1.3381 3-3v-3.498z" transform="matrix(.26458 0 0 .26458 3.2916e-5 3.2916e-5)"/><rect width="1.72" height="1.72" x="1.587" y="11.906" fill="#a2703c" stroke-width="53.991" ry="0"/><rect width="1.72" height="1.72" x="3.307" y="11.906" fill="#946f2d" stroke-width="53.991" ry="0"/><rect width="1.72" height="1.72" x="5.027" y="11.906" fill="#8f6335" stroke-width="53.991" ry="0"/><rect width="1.72" height="1.72" x="6.747" y="11.906" fill="#aa7034" stroke-width="53.991" ry="0"/><rect width="1.72" height="1.72" x="8.466" y="11.906" fill="#956837" stroke-width="53.991" ry="0"/><rect width="1.72" height="1.72" x="10.186" y="11.906" fill="#8f6335" stroke-width="53.991" ry="0"/><rect width="1.72" height="1.72" x="11.906" y="11.906" fill="#8f6335" stroke-width="53.991" ry="0"/><rect width="1.72" height="1.72" x="13.626" y="11.906" fill="#ac7740" stroke-width="53.991" ry="0"/><rect width="1.72" height="1.72" x="1.587" y="10.186" fill="#a36b30" stroke-width="53.991" ry="0"/><rect width="1.72" height="1.72" x="3.307" y="10.186" fill="#a2703c" stroke-width="53.991" ry="0"/><rect width="1.72" height="1.72" x="5.027" y="10.186" fill="#7c502e" stroke-width="53.991" ry="0"/><rect width="1.72" height="1.72" x="6.747" y="10.186" fill="#a2703c" stroke-width="53.991" ry="0"/><rect width="1.72" height="1.72" x="8.466" y="10.186" fill="#bc844a" stroke-width="53.991" ry="0"/><rect width="1.72" height="1.72" x="10.186" y="10.186" fill="#a2703c" stroke-width="53.991" ry="0"/><rect width="1.72" height="1.72" x="11.906" y="10.186" fill="#866b3b" stroke-width="53.991" ry="0"/><rect width="1.72" height="1.72" x="13.626" y="10.186" fill="#a2703c" stroke-width="53.991" ry="0"/><rect width="1.72" height="1.72" x="1.587" y="8.466" fill="#a2703c" stroke-width="53.991" ry="0"/><rect width="1.72" height="1.72" x="3.307" y="8.466" fill="#956837" stroke-width="53.991" ry="0"/><rect width="1.72" height="1.72" x="5.027" y="8.466" fill="#a36b30" stroke-width="53.991" ry="0"/><rect width="1.72" height="1.72" x="6.747" y="8.466" fill="#ab7033" stroke-width="53.991" ry="0"/><rect width="1.72" height="1.72" x="8.466" y="8.466" fill="#8f6335" stroke-width="53.991" ry="0"/><rect width="1.72" height="1.72" x="10.186" y="8.466" fill="#845531" stroke-width="53.991" ry="0"/><rect width="1.72" height="1.72" x="11.906" y="8.466" fill="#a2703c" stroke-width="53.991" ry="0"/><rect width="1.72" height="1.72" x="13.626" y="8.466" fill="#ac7740" stroke-width="53.991" ry="0"/><path fill="#5bb059" stroke-width="204.07" d="m9 6c-1.6619 0-3 1.3381-3 3v23h26v-26z" transform="matrix(.26458 0 0 .26458 3.2916e-5 3.2916e-5)"/><rect width="1.72" height="1.72" x="1.587" y="6.747" fill="#3fa13d" stroke-width="53.991" ry="0"/><rect width="1.72" height="1.72" x="3.307" y="6.747" fill="#674726" stroke-width="53.991" ry="0"/><rect width="1.72" height="1.72" x="5.027" y="6.747" fill="#a36b30" stroke-width="53.991" ry="0"/><rect width="1.72" height="1.72" x="6.747" y="6.747" fill="#977047" stroke-width="53.991" ry="0"/><rect width="1.72" height="1.72" x="8.466" y="6.747" fill="#a36b30" stroke-width="53.991" ry="0"/><rect width="1.72" height="1.72" x="10.186" y="6.747" fill="#3b843a" stroke-width="53.991" ry="0"/><rect width="1.72" height="1.72" x="11.906" y="6.747" fill="#b17a41" stroke-width="53.991" ry="0"/><rect width="1.72" height="1.72" x="13.626" y="6.747" fill="#a2703c" stroke-width="53.991" ry="0"/><rect width="1.72" height="1.72" x="1.587" y="5.027" fill="#4eb84b" stroke-width="53.991" ry="0"/><rect width="1.72" height="1.72" x="3.307" y="5.027" fill="#956837" stroke-width="53.991" ry="0"/><rect width="1.72" height="1.72" x="5.027" y="5.027" fill="#7c502e" stroke-width="53.991" ry="0"/><rect width="1.72" height="1.72" x="6.747" y="5.027" fill="#50a85f" stroke-width="53.991" ry="0"/><rect width="1.72" height="1.72" x="8.466" y="5.027" fill="#43c340" stroke-width="53.991" ry="0"/><rect width="1.72" height="1.72" x="10.186" y="5.027" fill="#3b843a" stroke-width="53.991" ry="0"/><rect width="1.72" height="1.72" x="11.906" y="5.027" fill="#9b783a" stroke-width="53.991" ry="0"/><rect width="1.72" height="1.72" x="13.626" y="5.027" fill="#377c36" stroke-width="53.991" ry="0"/><rect width="1.72" height="1.72" x="1.587" y="3.307" fill="#499648" stroke-width="53.991" ry="0"/><rect width="1.72" height="1.72" x="3.307" y="3.307" fill="#45a943" stroke-width="53.991" ry="0"/><rect width="1.72" height="1.72" x="5.027" y="3.307" fill="#3b843a" stroke-width="53.991" ry="0"/><rect width="1.72" height="1.72" x="6.747" y="3.307" fill="#4eb84b" stroke-width="53.991" ry="0"/><rect width="1.72" height="1.72" x="8.466" y="3.307" fill="#499648" stroke-width="53.991" ry="0"/><rect width="1.72" height="1.72" x="10.186" y="3.307" fill="#45a943" stroke-width="53.991" ry="0"/><rect width="1.72" height="1.72" x="11.906" y="3.307" fill="#3ca33b" stroke-width="53.991" ry="0"/><rect width="1.72" height="1.72" x="13.626" y="3.307" fill="#499648" stroke-width="53.991" ry="0"/><path fill="#3eb13b" stroke-width="204.07" d="m9 6c-1.6619 0-3 1.3381-3 3v3.5h6.5v-6.5z" transform="matrix(.26458 0 0 .26458 3.2916e-5 3.2916e-5)"/><rect width="1.72" height="1.72" x="3.307" y="1.587" fill="#499648" stroke-width="53.991" ry="0"/><rect width="1.72" height="1.72" x="5.027" y="1.587" fill="#548b53" stroke-width="53.991" ry="0"/><rect width="1.72" height="1.72" x="6.747" y="1.587" fill="#3b843a" stroke-width="53.991" ry="0"/><rect width="1.72" height="1.72" x="8.466" y="1.587" fill="#3b843a" stroke-width="53.991" ry="0"/><rect width="1.72" height="1.72" x="10.186" y="1.587" fill="#499648" stroke-width="53.991" ry="0"/><rect width="1.72" height="1.72" x="11.906" y="1.587" fill="#46b044" stroke-width="53.991" ry="0"/><path fill="url(#e)" stroke="#000" stroke-opacity=".196" stroke-width="1" d="m25.508 18.98-12.998 0.01367-0.01172 13.004-6.498 0.0039v22.998c0 1.6619 1.3381 3 3 3h46c1.6619 0 3-1.3381 3-3v-29.5l-6.5039-0.0059v-6.4961h-6.4961v13.002h-6.5059l2e-3 -6.5137-12.996 0.01172 0.0078-6.5176z" transform="matrix(.26458 0 0 .26458 3.2916e-5 3.2916e-5)"/><path fill="#51c164" fill-opacity=".87" stroke="#000" stroke-opacity=".196" stroke-width="1" d="m8.9609 6.0039c-1.6432 0.02134-2.9609 1.3476-2.9609 2.9961v23.004l6.498-0.0059v-6.4922l-2e-3 -6.5039 6.5 0.03711 6.5059-0.04297-0.0098 6.5039 12.996-0.0039 0.0039 6.5059 6.5059-0.0059 0.0039-12.988 6.498-0.01172-0.0059 6.5039h6.5039v-16.52c-0.01064-1.6392-1.3224-2.9553-2.959-2.9766h-46.078z" transform="matrix(.26458 0 0 .26458 3.2916e-5 3.2916e-5)"/></g><rect width="13.758" height="13.758" x="1.587" y="1.587" fill="none" clip-path="url(#a)"/><rect width="13.758" height="13.758" x="1.587" y="1.587" fill="none"/></svg>