<svg xmlns="http://www.w3.org/2000/svg" width="64" height="64" version="1.1" viewBox="0 0 64 64"><rect width="64" height="64" y="-.012" fill="none" opacity=".75" rx="0" ry="0"/><path fill="#3b549e" stroke-width="3.78" d="m8.9992 1.0016h46.002v59h-45.998v-59z" color="#000" overflow="visible"/><path fill="none" stroke="#36497b" stroke-linecap="round" stroke-linejoin="round" stroke-width="1.002" d="m8.5003 0.49889 46.999 0.00378v59.997h-46.996v-60.001z" color="#000" overflow="visible"/><path fill="#c1cae7" stroke-width="2" d="m21 19.501v22h22v-22zm1 1h20v3h-20zm0 4h1v4h-1zm2 0h1v4h-1zm2 0h1v4h-1zm2 0h1v4h-1zm2 0h1v4h-1zm2 0h1v4h-1zm2 0h1v4h-1zm2 0h1v4h-1zm3 1h3v1h-3zm-17 4h20v2h-20zm0 3h1v4h-1zm2 0h1v4h-1zm2 0h1v4h-1zm2 0h1v4h-1zm2 0h1v4h-1zm2 0h1v4h-1zm2 0h1v4h-1zm2 0h1v4h-1zm3 1h3v1h-3zm-17 4h20v3h-20z"/></svg>