<svg xmlns="http://www.w3.org/2000/svg" width="64" height="64" version="1.1" viewBox="0 0 64 64"><rect width="64" height="64" y="-.012" fill="none" opacity=".75" rx="0" ry="0"/><path fill="#5f6c79" stroke-width="3.78" d="m8.9992 1.0016h46.002v59h-45.998v-59z" color="#000" overflow="visible"/><path fill="none" stroke="#47515b" stroke-linecap="round" stroke-linejoin="round" stroke-width="1.002" d="m8.5003 0.49889 46.999 0.00378v59.997h-46.996v-60.001z" color="#000" overflow="visible"/><path fill="#fff" d="m21 19.501v22h22v-22zm1 1h20v20h-20zm2 3v2h16v-2zm0 4v1h7v-1zm9 0v1h7v-1zm-9 3v1h7v-1zm9 0v1h7v-1zm-9 3v1h7v-1zm9 0v1h7v-1zm-9 3v1h7v-1zm9 0v1h7v-1z" color="#000" color-rendering="auto" image-rendering="auto" opacity=".9" shape-rendering="auto" solid-color="#000000" style="isolation:auto;mix-blend-mode:normal"/></svg>