<svg xmlns="http://www.w3.org/2000/svg" width="64" height="64" version="1.1" viewBox="0 0 64 64"><rect width="64" height="64" y="-.012" fill="none" opacity=".75" rx="0" ry="0"/><path fill="#4bc94b" stroke-width="3.78" d="m8.9992 1.0016h46.002v59h-45.998v-59z" color="#000" overflow="visible"/><path fill="none" stroke="#389738" stroke-linecap="round" stroke-linejoin="round" stroke-width="1.002" d="m8.5003 0.49889 46.999 0.00378v59.997h-46.996v-60.001z" color="#000" overflow="visible"/><path fill="#fff" stroke-width="2" d="m35 19.501c-0.554 0-1 0.446-1 1v2h-12c-0.554 0-1 0.446-1 1v17c0 0.554 0.446 1 1 1h17c0.554 0 1-0.446 1-1v-4h2c0.554 0 1-0.446 1-1v-15c0-0.554-0.446-1-1-1h-2zm0 1h7v15h-2v-12c0-0.554-0.446-1-1-1-1.556-0.611-4.061-0.985-4-2m-13 3h17v17h-17zm1 2v4h15v-4zm0 6v1h7v-1zm8 0v1h7v-1zm-8 3v1h7v-1zm8 0v1h7v-1zm-8 3v1h7v-1zm8 0v1h7v-1z" color="#000" color-rendering="auto" image-rendering="auto" opacity=".9" shape-rendering="auto" solid-color="#000000" style="isolation:auto;mix-blend-mode:normal"/></svg>