<svg xmlns="http://www.w3.org/2000/svg" width="64" height="64" version="1.1" viewBox="0 0 16.933 16.933"><rect width="16.933" height="16.933" y="0" fill="none" stroke-width=".265" opacity=".75" rx="0" ry="0"/><path fill="#90d344" stroke-width=".265" d="m2.3788 0.26696 12.173 0.001058v15.342h-12.173v-15.343z"/><g stroke-linejoin="round"><path fill="none" stroke="#4e7b31" stroke-width=".265" d="m2.2489 0.13229 12.435 7.9373e-4v15.609h-12.435z" opacity=".85"/><ellipse cx="8.466" cy="10.848" stroke-linecap="round" stroke-width="1.03" opacity=".1" rx="2.381" ry="1.058" style="paint-order:stroke fill markers"/><ellipse cx="8.466" cy="10.848" stroke-linecap="round" stroke-width=".595" opacity=".1" rx="1.587" ry=".529" style="paint-order:stroke fill markers"/></g><path fill="#fff" fill-rule="evenodd" d="m8.4665 4.4978c-1.315 0-2.3812 1.0662-2.3812 2.3812 0 1.315 1.5875 3.9687 2.3812 3.9687 0.79373 0 2.3812-2.6537 2.3812-3.9687 0-1.315-1.0662-2.3812-2.3812-2.3812zm0 1.0582c0.73063 0 1.323 0.59232 1.323 1.323 0 0.73063-0.59232 1.323-1.323 1.323-0.73068 0-1.323-0.59232-1.323-1.323 0-0.73063 0.59232-1.323 1.323-1.323z"/></svg>