<svg xmlns="http://www.w3.org/2000/svg" xmlns:xlink="http://www.w3.org/1999/xlink" width="64" height="64" version="1.1" viewBox="0 0 16.933 16.933"><defs><linearGradient id="h"><stop offset="0" stop-color="#fff" stop-opacity="0"/><stop offset=".493" stop-color="#fff"/><stop offset="1" stop-color="#fff" stop-opacity="0"/></linearGradient><linearGradient id="c"><stop offset="0" stop-opacity="0"/><stop offset=".493"/><stop offset="1" stop-opacity="0"/></linearGradient><linearGradient id="al" x1="640" x2="640" y1="633" y2="688.52" gradientTransform="matrix(2 0 0 2 -711 -2873.6)" gradientUnits="userSpaceOnUse"><stop offset="0" stop-color="#18a303"/><stop offset="1" stop-color="#106802"/></linearGradient><linearGradient id="i"><stop offset="0" stop-color="green"/><stop offset="1" stop-color="#0f0" stop-opacity="0"/></linearGradient><linearGradient id="ak" x1="152" x2="113.88" y1="-1192.6" y2="-1230.8" gradientTransform="matrix(.73171 0 0 .73171 -637.22 -625.98)" gradientUnits="userSpaceOnUse"><stop offset="0" stop-color="#125a00"/><stop offset="1" stop-color="#69ce00" stop-opacity="0"/></linearGradient><linearGradient id="aj" x1="-17" x2="144" y1="-1194.6" y2="-1194.6" gradientTransform="matrix(.73913 0 0 1 538.56 -303)" gradientUnits="userSpaceOnUse" xlink:href="#c"/><radialGradient id="o" cx="-1535.3" cy="-853" r="10" gradientTransform="matrix(-3.3157 0 0 -4.65 -3490.7 -4551)" gradientUnits="userSpaceOnUse"><stop offset="0" stop-color="#fff"/><stop offset="1" stop-color="#f5ffaa" stop-opacity="0"/></radialGradient><linearGradient id="ai" x1="-17" x2="144" y1="-1194.6" y2="-1194.6" gradientTransform="matrix(.48447 0 0 1 583.24 -297)" gradientUnits="userSpaceOnUse" xlink:href="#c"/><linearGradient id="ah" x1="652.25" x2="652.25" y1="-1491.6" y2="-1548.1" gradientUnits="userSpaceOnUse"><stop offset="0" stop-color="gray"/><stop offset="1" stop-color="#b3b3b3"/></linearGradient><linearGradient id="ag" x1="714" x2="714" y1="-1063.6" y2="-1083.6" gradientTransform="matrix(1.8974 0 0 2.6 -777.77 1271.8)" gradientUnits="userSpaceOnUse"><stop offset="0" stop-color="#f2f2f2"/><stop offset="1" stop-color="#fff"/></linearGradient><linearGradient id="af" x1="152" x2="113.88" y1="-1192.6" y2="-1230.8" gradientTransform="matrix(.60976 0 0 .60976 557.32 -767.42)" gradientUnits="userSpaceOnUse"><stop offset="0"/><stop offset=".455" stop-opacity=".361"/><stop offset="1" stop-opacity="0"/></linearGradient><linearGradient id="ae" x1="525.64" x2="525.64" y1="-1078.6" y2="-1068.8" gradientTransform="matrix(1.7143 0 0 3.3333 -316.43 5092.4)" gradientUnits="userSpaceOnUse"><stop offset="0" stop-color="#63bbee"/><stop offset="1" stop-color="#aadcf7"/></linearGradient><linearGradient id="ad" x1="525.64" x2="525.64" y1="-1078.6" y2="-1068.8" gradientTransform="matrix(1.7143 0 0 4.4444 -298.43 6290.4)" gradientUnits="userSpaceOnUse"><stop offset="0" stop-color="#f09e6f"/><stop offset="1" stop-color="#f9cfb5"/></linearGradient><linearGradient id="ac" x1="525.64" x2="525.64" y1="-1078.6" y2="-1068.8" gradientTransform="matrix(1.7143 0 0 2 -280.43 3654.9)" gradientUnits="userSpaceOnUse"><stop offset="0" stop-color="#f5ce53"/><stop offset="1" stop-color="#fde9a9"/></linearGradient><linearGradient id="ab" x1="525.64" x2="525.64" y1="-1078.6" y2="-1068.8" gradientTransform="matrix(1.7143 0 0 2.8889 -262.43 4613.3)" gradientUnits="userSpaceOnUse"><stop offset="0" stop-color="#8ee780"/><stop offset="1" stop-color="#ccf4c6"/></linearGradient><linearGradient id="aa" x1="529.25" x2="535" y1="-1568.6" y2="-1574.6" gradientTransform="matrix(.83333 0 0 2.3333 141.17 2160.5)" gradientUnits="userSpaceOnUse"><stop offset="0" stop-color="#4a00ff"/><stop offset="1" stop-color="#00a0c1" stop-opacity="0"/></linearGradient><linearGradient id="z" x1="529.25" x2="535" y1="-1568.6" y2="-1574.6" gradientTransform="matrix(.83333 0 0 3.1667 159.17 3467.7)" gradientUnits="userSpaceOnUse"><stop offset="0" stop-color="maroon"/><stop offset="1" stop-color="#ffc600" stop-opacity="0"/></linearGradient><linearGradient id="y" x1="-17" x2="144" y1="-1194.6" y2="-1194.6" gradientTransform="matrix(.45963 0 0 1 584.81 -303)" gradientUnits="userSpaceOnUse" xlink:href="#c"/><linearGradient id="x" x1="-17" x2="144" y1="-1194.6" y2="-1194.6" gradientTransform="matrix(.45963 0 0 1 584.81 -300)" gradientUnits="userSpaceOnUse" xlink:href="#h"/><linearGradient id="w" x1="529.25" x2="535" y1="-1568.6" y2="-1574.6" gradientTransform="matrix(.83333 0 0 2 195.17 1637.6)" gradientUnits="userSpaceOnUse"><stop offset="0" stop-color="#003362"/><stop offset="1" stop-color="#00ff8c" stop-opacity="0"/></linearGradient><linearGradient id="v" x1="529.25" x2="535" y1="-1568.6" y2="-1574.6" gradientTransform="matrix(.83333 0 0 1.3333 177.17 591.88)" gradientUnits="userSpaceOnUse"><stop offset="0" stop-color="red"/><stop offset="1" stop-color="#d3d300" stop-opacity="0"/></linearGradient><linearGradient id="u" x1="-17" x2="144" y1="-1194.6" y2="-1194.6" gradientTransform="matrix(.16149 0 0 1 530.74 -391)" gradientUnits="userSpaceOnUse" xlink:href="#c"/><linearGradient id="t" x1="529.25" x2="535.44" y1="-1568.6" y2="-1574.8" gradientTransform="translate(0,-18)" gradientUnits="userSpaceOnUse" xlink:href="#i"/><linearGradient id="s" x1="529.25" x2="535.44" y1="-1568.6" y2="-1574.8" gradientTransform="translate(0,-1)" gradientUnits="userSpaceOnUse" xlink:href="#i"/><linearGradient id="r" x1="-17" x2="144" y1="-1194.6" y2="-1194.6" gradientTransform="matrix(.37888 0 0 1 589.44 -344)" gradientUnits="userSpaceOnUse" xlink:href="#c"/><radialGradient id="n" cx="152.33" cy="-754.64" r="15" gradientTransform="matrix(0 .37784 -.665 -9.1481e-5 85.141 -1556.3)" gradientUnits="userSpaceOnUse"><stop offset="0" stop-opacity=".502"/><stop offset="1" stop-opacity="0"/></radialGradient><linearGradient id="q" x1="-17" x2="144" y1="-1194.6" y2="-1194.6" gradientTransform="matrix(.074534 0 0 1 582.27 -334)" gradientUnits="userSpaceOnUse" xlink:href="#h"/><linearGradient id="p" x1="-17" x2="144" y1="-1194.6" y2="-1194.6" gradientTransform="matrix(.45963 0 0 1 -643.19 2740.3)" gradientUnits="userSpaceOnUse" xlink:href="#c"/></defs><g><path fill="#f9f9f9" fill-rule="evenodd" stroke-width=".265" d="m3.4395 1.3229h-1.0583v14.287h12.171v-11.112l-2.9104-3.1749z" style="paint-order:stroke fill markers"/><path fill="#278d14" d="m3.4395 1.0583-1.3229 1.25e-5v14.816l1.3229 4.23e-4h10.054l1.3229-4.23e-4 2.5e-5 -11.641-3.1749-3.1749zm0 0.52916h7.9828l2.8649 2.8649 1.9e-5 10.893-0.79375-4.5e-4h-10.054l-0.79369 4.5e-4v-13.758l0.79369-8.387e-4z" color="#000" color-rendering="auto" dominant-baseline="auto" image-rendering="auto" shape-rendering="auto" solid-color="#000000" style="font-feature-settings:normal;font-variant-alternates:normal;font-variant-caps:normal;font-variant-ligatures:normal;font-variant-numeric:normal;font-variant-position:normal;isolation:auto;mix-blend-mode:normal;paint-order:fill markers stroke;shape-padding:0;text-decoration-color:#000;text-decoration-line:none;text-decoration-style:solid;text-indent:0;text-orientation:mixed;text-transform:none;white-space:normal"/><path fill="#278d14" fill-rule="evenodd" d="m12.171 1.0583 2.6458 2.6458-3.75e-4 -1.3229-5e-5 -1.3229z" style="paint-order:stroke fill markers"/></g><g transform="matrix(.06142 0 0 .06142 -27.71 103.46)"><path fill="url(#al)" d="m525-1602.6v105h119v-105z" color="#000"/><use width="5033" height="1085" transform="translate(29,51)" xlink:href="#a"/><use width="5033" height="1085" transform="translate(0,34)" xlink:href="#a"/><rect id="b" width="26" height="1" x="528" y="-1585.6" fill="url(#u)" color="#000" opacity=".5"/><use width="5033" height="1085" transform="matrix(0 .61538 -1 0 -999.64 -1925.6)" xlink:href="#b"/><rect id="d" width="26" height="14" x="528" y="-1599.6" fill="#92e285" color="#000"/><use width="5033" height="1085" transform="translate(29)" xlink:href="#d"/><use width="5033" height="1085" transform="translate(58)" xlink:href="#d"/><use width="5033" height="1085" transform="translate(87)" xlink:href="#d"/><rect id="m" width="12" height="12" x="529" y="-1598.6" fill="url(#t)" color="#000" opacity=".5"/><use width="5033" height="1085" transform="matrix(0 .61538 -1 0 -1057.6 -1925.6)" xlink:href="#b"/><g id="a"><use width="5033" height="1085" transform="translate(0,17)" xlink:href="#b"/><rect width="26" height="14" x="528" y="-1582.6" fill="#e0f4dd" color="#000"/><rect width="12" height="12" x="529" y="-1581.6" fill="url(#s)" color="#000" opacity=".25"/><use width="5033" height="1085" transform="matrix(0 .61538 -1 0 -1057.6 -1908.6)" xlink:href="#b"/></g><use width="5033" height="1085" transform="matrix(0 .61538 -1 0 -1028.6 -1925.6)" xlink:href="#b"/><use id="k" width="5033" height="1085" transform="translate(29)" xlink:href="#m"/><use id="j" width="5033" height="1085" transform="translate(29)" xlink:href="#k"/><use width="5033" height="1085" transform="matrix(0 .61538 -1 0 -970.64 -1925.6)" xlink:href="#b"/><use width="5033" height="1085" transform="translate(29)" xlink:href="#j"/><use width="5033" height="1085" transform="translate(29,34)" xlink:href="#a"/><use width="5033" height="1085" transform="translate(29)" xlink:href="#a"/><use width="5033" height="1085" transform="translate(58)" xlink:href="#a"/><use width="5033" height="1085" transform="translate(87)" xlink:href="#a"/><use width="5033" height="1085" transform="translate(0,17)" xlink:href="#a"/><use width="5033" height="1085" transform="translate(29,17)" xlink:href="#a"/><use width="5033" height="1085" transform="translate(58,17)" xlink:href="#a"/><use width="5033" height="1085" transform="translate(87,17)" xlink:href="#a"/><use width="5033" height="1085" transform="translate(0,51)" xlink:href="#a"/><use width="5033" height="1085" transform="translate(0,68)" xlink:href="#a"/><use width="5033" height="1085" transform="translate(29,68)" xlink:href="#a"/><rect width="60" height="60" x="-586" y="-1558.6" fill="url(#ak)" color="#000" opacity=".5" transform="scale(-1,1)"/><use width="5033" height="1085" transform="translate(87,34)" xlink:href="#a"/><use width="5033" height="1085" transform="translate(58,34)" xlink:href="#a"/><rect width="119" height="1" x="526" y="-1497.6" fill="url(#aj)" color="#000" opacity=".5"/><rect width="32" height="93" x="1567.6" y="-631" fill="url(#o)" color="#000" opacity=".6" rx="4" ry="4" transform="matrix(0,-1,-1,0,0,0)"/><rect width="78" height="1" x="575" y="-1491.6" fill="url(#ai)" color="#000" opacity=".25"/><rect width="78" height="56" x="575" y="-1547.6" fill="url(#ah)" color="#000"/><rect width="74" height="52" x="577" y="-1545.6" fill="url(#ag)" color="#000"/><use width="5033" height="1085" transform="translate(18)" xlink:href="#g"/><use width="5033" height="1085" transform="translate(36)" xlink:href="#g"/><use width="5033" height="1085" transform="translate(54)" xlink:href="#g"/><use width="5033" height="1085" transform="translate(0,30)" xlink:href="#e"/><use width="5033" height="1085" transform="translate(0,10)" xlink:href="#e"/><rect width="50" height="50" x="600" y="-1544.6" fill="url(#af)" color="#000" opacity=".15"/><use width="5033" height="1085" transform="translate(0,20)" xlink:href="#e"/><rect width="14" height="32" x="580" y="-1529.6" fill="#0369a3" color="#000"/><rect id="e" width="61" height="1" x="583" y="-1538.6" fill="url(#r)" color="#000" opacity=".25"/><rect width="14" height="42" x="598" y="-1539.6" fill="#a33e03" color="#000"/><rect width="14" height="20" x="616" y="-1517.6" fill="#c99c00" color="#000"/><rect width="14" height="28" x="634" y="-1525.6" fill="#43c330" color="#000"/><path id="g" fill="url(#n)" d="m577.57-1503.6h18.857c0.31656 0 0.57142 1.5082 0.57142 3.3816v3.2368c0 1.8734-0.25486 3.3816-0.57142 3.3816h-18.857c-0.31657 0-0.57142-1.5082-0.57142-3.3816v-3.2368c0-1.8734 0.25485-3.3816 0.57142-3.3816z" color="#000" opacity=".5"/><rect width="12" height="30" x="581" y="1498.6" fill="url(#ae)" color="#000" transform="scale(1,-1)"/><rect width="12" height="40" x="599" y="1498.6" fill="url(#ad)" color="#000" transform="scale(1,-1)"/><rect width="12" height="18" x="617" y="1498.6" fill="url(#ac)" color="#000" transform="scale(1,-1)"/><rect width="12" height="26" x="635" y="1498.6" fill="url(#ab)" color="#000" transform="scale(1,-1)"/><rect width="10" height="28" x="582" y="-1527.6" fill="url(#aa)" color="#000" opacity=".35"/><rect width="10" height="38" x="600" y="-1537.6" fill="url(#z)" color="#000" opacity=".35"/><rect id="f" width="12" height="1" x="581" y="-1528.6" fill="url(#q)" color="#000" opacity=".75"/><rect width="74" height="1" x="577" y="-1497.6" fill="url(#y)" color="#000" opacity=".5"/><rect width="74" height="1" x="577" y="-1494.6" fill="url(#x)" color="#000" opacity=".75"/><rect width="10" height="24" x="636" y="-1523.6" fill="url(#w)" color="#000" opacity=".35"/><rect width="10" height="16" x="618" y="-1515.6" fill="url(#v)" color="#000" opacity=".35"/><rect id="l" width="74" height="1" x="-651" y="1545.6" fill="url(#p)" color="#000" opacity=".25" transform="scale(-1)"/><use width="5033" height="1085" transform="translate(0,53)" xlink:href="#l"/><use width="5033" height="1085" transform="translate(18,-10)" xlink:href="#f"/><use width="5033" height="1085" transform="translate(36,12)" xlink:href="#f"/><use width="5033" height="1085" transform="translate(54,4)" xlink:href="#f"/></g></svg>