<svg xmlns="http://www.w3.org/2000/svg" xmlns:xlink="http://www.w3.org/1999/xlink" width="64" height="64" version="1.1" viewBox="0 0 16.933 16.933"><defs><radialGradient id="n" cx="152.33" cy="-754.64" r="15" gradientTransform="matrix(3.8407e-6 .27074 -4.0434 0 -2202 -1535.9)" gradientUnits="userSpaceOnUse"><stop offset="0" stop-color="gray" stop-opacity=".502"/><stop offset="1" stop-opacity="0"/></radialGradient><linearGradient id="g" x1="850.25" x2="850.25" y1="-1506.6" y2="-1510.6" gradientUnits="userSpaceOnUse"><stop offset="0" stop-color="gray"/><stop offset="1" stop-color="#333"/></linearGradient><linearGradient id="ak" x1="809.62" x2="809.62" y1="-1074.8" y2="-1116.8" gradientTransform="matrix(2.0333 0 0 2.0476 -752.27 686.81)" gradientUnits="userSpaceOnUse"><stop offset="0" stop-color="#d36118"/><stop offset="1" stop-color="#f09e6f"/></linearGradient><linearGradient id="aj" x1="812" x2="812" y1="-1075.6" y2="-1115.6" gradientTransform="matrix(2.0333 0 0 2.15 -752.27 798.98)" gradientUnits="userSpaceOnUse"><stop offset="0" stop-color="#edbfa1"/><stop offset="1" stop-color="#fdf1ea"/></linearGradient><radialGradient id="m" cx="-1535.5" cy="-853" r="10" gradientTransform="matrix(-3.3157 0 0 -3.2 -6604 -3579.6)" gradientUnits="userSpaceOnUse"><stop offset="0" stop-color="#fff"/><stop offset="1" stop-color="#ffd5d5" stop-opacity="0"/></radialGradient><linearGradient id="b" x1="825.25" x2="825.25" y1="-1559.6" y2="-1525.6" gradientUnits="userSpaceOnUse"><stop offset="0" stop-color="#b84603"/><stop offset="1" stop-color="#622502"/></linearGradient><linearGradient id="ai" x1="895.5" x2="895.5" y1="647.81" y2="735.75" gradientUnits="userSpaceOnUse" xlink:href="#c"/><linearGradient id="c"><stop offset="0" stop-color="#e67325"/><stop offset="1" stop-color="#c8400c"/></linearGradient><linearGradient id="ah" x1="798.25" x2="902" y1="-1589.1" y2="-1589.1" gradientUnits="userSpaceOnUse"><stop offset="0" stop-color="#8e2103"/><stop offset=".169" stop-color="#e46f1f"/><stop offset=".838" stop-color="#e66d20"/><stop offset="1" stop-color="#922504"/></linearGradient><linearGradient id="ag" x1="902.25" x2="902.25" y1="-1534.4" y2="-1524.4" gradientUnits="userSpaceOnUse"><stop offset="0" stop-color="gray"/><stop offset="1" stop-color="#606060"/></linearGradient><linearGradient id="af" x1="714" x2="714" y1="-1063.6" y2="-1079.2" gradientTransform="matrix(1.1795 0 0 1.5 10.846 67.819)" gradientUnits="userSpaceOnUse"><stop offset="0" stop-color="#fff"/><stop offset="1" stop-color="#fff" stop-opacity="0"/></linearGradient><linearGradient id="ae" x1="889" x2="879" y1="-1054.6" y2="-1042.6" gradientTransform="matrix(2 0 0 2 -898 556.64)" gradientUnits="userSpaceOnUse"><stop offset="0" stop-color="#18a303"/><stop offset="1" stop-color="#106802"/></linearGradient><linearGradient id="ad" x1="818.03" x2="882.24" y1="-1575.7" y2="-1575.7" gradientUnits="userSpaceOnUse"><stop offset="0" stop-color="#8e2103"/><stop offset=".169" stop-color="#e45c1f"/><stop offset=".838" stop-color="#e45c1f"/><stop offset="1" stop-color="#922504"/></linearGradient><linearGradient id="ac" x1="-17" x2="144" y1="-1194.6" y2="-1194.6" gradientTransform="matrix(.72671 0 0 1 802.35 -405)" gradientUnits="userSpaceOnUse" xlink:href="#f"/><linearGradient id="f"><stop offset="0" stop-color="#fff" stop-opacity="0"/><stop offset=".493" stop-color="#fff"/><stop offset="1" stop-color="#fff" stop-opacity="0"/></linearGradient><linearGradient id="ab" x1="895.5" x2="895.5" y1="621.56" y2="709.5" gradientUnits="userSpaceOnUse" xlink:href="#c"/><linearGradient id="aa" x1="895.5" x2="895.5" y1="595.31" y2="683.25" gradientUnits="userSpaceOnUse" xlink:href="#c"/><linearGradient id="z" x1="895.5" x2="895.5" y1="569.06" y2="657" gradientUnits="userSpaceOnUse" xlink:href="#c"/><linearGradient id="y" x1="-17" x2="144" y1="-1194.6" y2="-1194.6" gradientTransform="matrix(.64596 0 0 1 808.98 -396)" gradientUnits="userSpaceOnUse" xlink:href="#a"/><linearGradient id="a"><stop offset="0" stop-opacity="0"/><stop offset=".493"/><stop offset="1" stop-opacity="0"/></linearGradient><linearGradient id="x" x1="-17" x2="144" y1="-1194.6" y2="-1194.6" gradientTransform="matrix(.39752 0 0 1 824.76 -386)" gradientUnits="userSpaceOnUse" xlink:href="#a"/><linearGradient id="w" x1="-17" x2="144" y1="-1194.6" y2="-1194.6" gradientTransform="matrix(.7205 0 0 1 804.25 -319)" gradientUnits="userSpaceOnUse" xlink:href="#a"/><linearGradient id="v" x1="-17" x2="144" y1="-1194.6" y2="-1194.6" gradientTransform="matrix(.28611 0 0 1 858.01 -333.94)" gradientUnits="userSpaceOnUse" xlink:href="#f"/><linearGradient id="u" x1="881" x2="887" y1="-1042.6" y2="-1048.6" gradientTransform="matrix(2 0 0 2 -898 556.64)" gradientUnits="userSpaceOnUse"><stop offset="0" stop-color="#78db67"/><stop offset="1" stop-color="#ccf4c6"/></linearGradient><radialGradient id="l" cx="152.33" cy="-754.64" r="15" gradientTransform="matrix(7.9353e-7 .16921 -.83542 0 197.03 -1518)" gradientUnits="userSpaceOnUse"><stop offset="0" stop-opacity=".502"/><stop offset="1" stop-opacity="0"/></radialGradient><linearGradient id="t" x1="529.25" x2="535" y1="-1568.6" y2="-1574.6" gradientTransform="matrix(1.6667 0 0 7 -91.667 9465.8)" gradientUnits="userSpaceOnUse"><stop offset="0" stop-color="red"/><stop offset="1" stop-color="#ffc600" stop-opacity="0"/></linearGradient><linearGradient id="s" x1="-17" x2="144" y1="-1194.6" y2="-1194.6" gradientTransform="matrix(.28611 0 0 1 857.86 -364)" gradientUnits="userSpaceOnUse" xlink:href="#a"/><linearGradient id="r" x1="-17" x2="144" y1="-1194.6" y2="-1194.6" gradientTransform="matrix(.18634 0 0 1 813.17 -365)" gradientUnits="userSpaceOnUse" xlink:href="#a"/><linearGradient id="q" x1="-17" x2="144" y1="-1194.6" y2="-1194.6" gradientTransform="matrix(.50932 0 0 1 -1589 403.64)" gradientUnits="userSpaceOnUse"><stop offset="0" stop-color="#d40000" stop-opacity="0"/><stop offset=".493" stop-color="#d40000"/><stop offset="1" stop-color="#d40000" stop-opacity="0"/></linearGradient></defs><g><path fill="#f9f9f9" fill-rule="evenodd" stroke-width=".265" d="m3.4395 1.3229h-1.0583v14.287h12.171v-11.112l-2.9104-3.1749z" style="paint-order:stroke fill markers"/><path fill="#ad450d" d="m3.4395 1.0583-1.3229 1.25e-5v14.816l1.3229 4.23e-4h10.054l1.3229-4.23e-4 2.5e-5 -11.641-3.1749-3.1749zm0 0.52916h7.9828l2.8649 2.8649 1.9e-5 10.893-0.79375-4.5e-4h-10.054l-0.79369 4.5e-4v-13.758l0.79369-8.387e-4z" color="#000" color-rendering="auto" dominant-baseline="auto" image-rendering="auto" shape-rendering="auto" solid-color="#000000" style="font-feature-settings:normal;font-variant-alternates:normal;font-variant-caps:normal;font-variant-ligatures:normal;font-variant-numeric:normal;font-variant-position:normal;isolation:auto;mix-blend-mode:normal;paint-order:fill markers stroke;shape-padding:0;text-decoration-color:#000;text-decoration-line:none;text-decoration-style:solid;text-indent:0;text-orientation:mixed;text-transform:none;white-space:normal"/><path fill="#ad450d" fill-rule="evenodd" d="m12.171 1.0583 2.6458 2.6458-3.75e-4 -1.3229-5e-5 -1.3229z" style="paint-order:stroke fill markers"/></g><g transform="matrix(.057876 0 0 .057876 -40.728 97.951)"><rect id="j" width="25" height="5" x="815" y="-1494.6" fill="url(#l)" color="#000" opacity=".5"/><rect width="121" height="8" x="789" y="-1498.6" fill="url(#n)" color="#000" opacity=".4"/><path id="p" fill="#4d4d4d" d="m846.24-1508.6-24.242 16h9.7688l3.3981-1.114 18.833-14.886z"/><use width="5033" height="1085" transform="matrix(-1,0,0,1,1699,0)" xlink:href="#p"/><path fill="#4d4d4d" d="m854-1508.6 24 16h-10.011l-3.0862-0.878-18.903-15.122z"/><path id="o" fill="url(#g)" d="m844.24-1508.6-24.242 16h11.758l20.242-16z"/><rect width="12" height="6" x="844" y="-1512.6" fill="url(#g)" color="#000"/><rect width="128" height="92" x="786" y="-1602.6" fill="#a33e03" color="#000" rx="2" ry="2"/><rect width="122" height="86" x="789" y="-1599.6" fill="url(#ak)" color="#000" rx="4" ry="4"/><rect width="122" height="86" x="789" y="-1599.6" fill="url(#aj)" color="#000" rx="4" ry="4"/><rect id="k" width="20" height="84" x="790" y="-1598.6" fill="url(#t)" color="#000" opacity=".35" rx="4" ry="4"/><rect width="52" height="36" x="850" y="-1559.6" fill="#fff" color="#000" opacity=".5"/><rect width="32" height="64" x="-1545.6" y="-882" fill="url(#m)" color="#000" transform="rotate(90)"/><g fill="#fff" opacity=".5"><rect width="30" height="4" x="810" y="-1558.6" color="#000"/><rect width="30" height="4" x="810" y="-1548.6" color="#000"/><rect width="30" height="4" x="810" y="-1538.6" color="#000"/><rect width="30" height="4" x="810" y="-1528.6" color="#000"/></g><rect width="30" height="4" x="810" y="-1559.6" fill="url(#b)" color="#000"/><g fill="#fff"><path d="m901 651.75a5.5 5.25 0 1 1-11 0 5.5 5.25 0 1 1 11 0z" color="#000" transform="matrix(.36364 0 0 .38095 476.36 -1794.9)"/><path d="m901 651.75a5.5 5.25 0 1 1-11 0 5.5 5.25 0 1 1 11 0z" color="#000" transform="matrix(.36364 0 0 .38095 476.36 -1784.9)"/><path d="m901 651.75a5.5 5.25 0 1 1-11 0 5.5 5.25 0 1 1 11 0z" color="#000" transform="matrix(.36364 0 0 .38095 476.36 -1804.9)"/><path d="m901 651.75a5.5 5.25 0 1 1-11 0 5.5 5.25 0 1 1 11 0z" color="#000" transform="matrix(.36364 0 0 .38095 476.36 -1774.9)"/></g><path fill="url(#ai)" d="m901 651.75a5.5 5.25 0 1 1-11 0 5.5 5.25 0 1 1 11 0z" color="#000" transform="matrix(.36364 0 0 .38095 476.36 -1805.9)"/><rect width="104" height="5" x="798" y="-1589.6" fill="#fff" color="#000"/><rect width="104" height="5" x="798" y="-1590.6" fill="url(#ah)" color="#000"/><rect width="52" height="36" x="850" y="-1560.6" fill="url(#ag)" color="#000"/><rect width="46" height="30" x="853" y="-1557.6" fill="#dfdfdf" color="#000"/><rect width="46" height="30" x="853" y="-1557.6" fill="url(#af)" color="#000"/><rect id="d" width="40" height="2" x="856" y="-1552.6" color="#000" opacity=".05"/><path fill="none" stroke="url(#ae)" stroke-linecap="round" stroke-linejoin="round" stroke-width="3" d="m859-1533.6 11-11 8 8 15-15"/><rect width="64" height="5" x="818" y="-1579.6" fill="#fff" color="#000"/><rect width="64" height="5" x="818" y="-1580.6" fill="url(#ad)" color="#000"/><rect width="117" height="1" x="790" y="-1599.6" fill="url(#ac)" color="#000"/><rect width="30" height="4" x="810" y="-1549.6" fill="url(#b)" color="#000"/><path fill="url(#ab)" d="m901 651.75a5.5 5.25 0 1 1-11 0 5.5 5.25 0 1 1 11 0z" color="#000" transform="matrix(.36364 0 0 .38095 476.36 -1795.9)"/><rect width="30" height="4" x="810" y="-1539.6" fill="url(#b)" color="#000"/><path fill="url(#aa)" d="m901 651.75a5.5 5.25 0 1 1-11 0 5.5 5.25 0 1 1 11 0z" color="#000" transform="matrix(.36364 0 0 .38095 476.36 -1785.9)"/><rect width="30" height="4" x="810" y="-1529.6" fill="url(#b)" color="#000"/><path fill="url(#z)" d="m901 651.75a5.5 5.25 0 1 1-11 0 5.5 5.25 0 1 1 11 0z" color="#000" transform="matrix(.36364 0 0 .38095 476.36 -1775.9)"/><rect width="104" height="1" x="798" y="-1590.6" fill="url(#y)" color="#000" opacity=".25"/><rect width="64" height="1" x="818" y="-1580.6" fill="url(#x)" color="#000" opacity=".5"/><rect width="116" height="1" x="792" y="-1513.6" fill="url(#w)" color="#000" opacity=".5"/><rect id="i" width="46.063" height="1" x="853" y="-1558.6" fill="url(#s)" color="#000" opacity=".25"/><rect width="46.063" height="1" x="853.15" y="-1528.6" fill="url(#v)" color="#000"/><rect id="e" width="30" height="1" x="810" y="-1559.6" fill="url(#r)" color="#000" opacity=".25"/><rect id="h" width="82" height="1" x="-1597.6" y="-791" fill="url(#q)" color="#000" opacity=".15" transform="rotate(90)"/><use width="5033" height="1085" transform="translate(119)" xlink:href="#h"/><use width="5033" height="1085" transform="matrix(-1,0,0,1,1700,0)" xlink:href="#k"/><use width="5033" height="1085" transform="translate(0,10)" xlink:href="#e"/><use width="5033" height="1085" transform="translate(0,20)" xlink:href="#e"/><use width="5033" height="1085" transform="translate(0,30)" xlink:href="#e"/><use width="5033" height="1085" transform="translate(0,31)" xlink:href="#i"/><use width="5033" height="1085" transform="translate(0,6)" xlink:href="#d"/><use width="5033" height="1085" transform="translate(0,12)" xlink:href="#d"/><use width="5033" height="1085" transform="translate(0,17)" xlink:href="#d"/><path fill="none" stroke="url(#u)" stroke-linecap="round" stroke-linejoin="round" stroke-width="1.5" d="m859-1533.6 11-11 8 8 15-15"/><use width="5033" height="1085" transform="matrix(-1,0,0,1,1699,0)" xlink:href="#j"/><use width="5033" height="1085" transform="matrix(-1,0,0,1,1699,0)" xlink:href="#o"/></g></svg>