<svg xmlns="http://www.w3.org/2000/svg" xmlns:xlink="http://www.w3.org/1999/xlink" width="64" height="64" version="1.1" viewBox="0 0 16.933 16.933"><defs><radialGradient id="f" cx="-1535.2" cy="-848.92" r="10" gradientTransform="matrix(-.18276 0 0 -.26603 -287.74 -255.78)" gradientUnits="userSpaceOnUse"><stop offset="0" stop-color="#fffb88"/><stop offset="1" stop-color="#b97f00" stop-opacity="0"/></radialGradient><linearGradient id="k" x1="1171.2" x2="1171.2" y1="-1513.4" y2="-1575.6" gradientTransform="matrix(.058795 0 0 .058795 -37.865 99.829)" gradientUnits="userSpaceOnUse"><stop offset="0" stop-color="#ecbb10"/><stop offset="1" stop-color="#ffd251"/></linearGradient><linearGradient id="l" x1="-17" x2="144" y1="-1194.6" y2="-1194.6" gradientTransform="matrix(.026293 0 0 .058795 24.831 81.806)" gradientUnits="userSpaceOnUse" xlink:href="#e"/><linearGradient id="e"><stop offset="0" stop-color="#d40000" stop-opacity="0"/><stop offset=".493" stop-color="#a00"/><stop offset="1" stop-color="#a00" stop-opacity="0"/></linearGradient><linearGradient id="m" x1="-17" x2="144" y1="-1194.6" y2="-1194.6" gradientTransform="matrix(.010225 0 0 .058795 28.571 80.924)" gradientUnits="userSpaceOnUse" xlink:href="#e"/><linearGradient id="n" x1="1162" x2="1162" y1="889.01" y2="900.72" gradientTransform="matrix(.064767 0 0 .060245 -48.641 -45.195)" gradientUnits="userSpaceOnUse" xlink:href="#a"/><linearGradient id="a"><stop offset="0" stop-color="#ff6a1e"/><stop offset="1" stop-color="#d45500" stop-opacity="0"/></linearGradient><radialGradient id="g" cx="-1535.5" cy="-853" r="10" gradientTransform="matrix(-.1523 0 0 -.14699 -222.13 -151.94)" gradientUnits="userSpaceOnUse"><stop offset="0" stop-color="#fff"/><stop offset="1" stop-color="#ffd5d5" stop-opacity="0"/></radialGradient><linearGradient id="i" x1="1155" x2="1165.5" y1="899.99" y2="893.35" gradientTransform="matrix(-.087556 0 0 .080326 129.78 -60.725)" gradientUnits="userSpaceOnUse" xlink:href="#a"/><linearGradient id="j" x1="1155" x2="1165.5" y1="899.99" y2="893.35" gradientTransform="matrix(.087556 0 0 .080326 -76.552 -60.725)" gradientUnits="userSpaceOnUse" xlink:href="#a"/><linearGradient id="o" x1="1162.2" x2="1162.2" y1="900.72" y2="887.07" gradientTransform="matrix(.26267 0 0 .24098 -278.6 -205.43)" gradientUnits="userSpaceOnUse"><stop offset="0" stop-color="#edc33e"/><stop offset="1" stop-color="#fae6a5"/></linearGradient><linearGradient id="p" x1="1162.6" x2="1162.6" y1="900.19" y2="887.43" gradientTransform="matrix(.27346 0 0 .25344 -291.14 -216.6)" gradientUnits="userSpaceOnUse"><stop offset="0" stop-color="#f8ca35"/><stop offset="1" stop-color="#fef0c4"/></linearGradient><linearGradient id="q" x1="1065.8" x2="1065.8" y1="-1561.4" y2="-1495.6" gradientTransform="matrix(.058795 0 0 .058795 -37.88 99.738)" gradientUnits="userSpaceOnUse"><stop offset="0" stop-color="#e2b006"/><stop offset="1" stop-color="#bc8611"/></linearGradient><linearGradient id="r" x1="529.25" x2="535" y1="-1568.6" y2="-1574.6" gradientTransform="matrix(.14699 0 0 .29397 -50.3 471.88)" gradientUnits="userSpaceOnUse" xlink:href="#d"/><linearGradient id="d"><stop offset="0" stop-color="#b42c00"/><stop offset="1" stop-color="#ffc600" stop-opacity="0"/></linearGradient><linearGradient id="s" x1="529.25" x2="535" y1="-1568.6" y2="-1574.6" gradientTransform="matrix(.14699 0 0 .29397 -108.74 471.88)" gradientUnits="userSpaceOnUse" xlink:href="#d"/><linearGradient id="t" x1="1171" x2="1138" y1="-1562.1" y2="-1504.9" gradientTransform="matrix(.058795 0 0 .058795 -37.865 99.797)" gradientUnits="userSpaceOnUse"><stop offset="0" stop-color="#e4bc33"/><stop offset="1" stop-color="#cd9215"/></linearGradient><linearGradient id="u" x1="1171.2" x2="1171.2" y1="-1513.4" y2="-1575.6" gradientTransform="matrix(.058795 0 0 .058795 -37.865 99.797)" gradientUnits="userSpaceOnUse"><stop offset="0" stop-color="#d7ae1e"/><stop offset="1" stop-color="#ffd251"/></linearGradient><linearGradient id="v" x1="1079.5" x2="1079.5" y1="-2650.3" y2="-2617.5" gradientTransform="matrix(.11759 0 0 .1194 -95.895 323.48)" gradientUnits="userSpaceOnUse"><stop offset="0" stop-color="#a88200"/><stop offset="1" stop-color="#724a00"/></linearGradient><radialGradient id="h" cx="-2578.7" cy="-1363.4" r="10" gradientTransform="matrix(.12574 -1.5094e-6 1.561e-6 .13021 350.99 184.51)" gradientUnits="userSpaceOnUse"><stop offset="0" stop-color="#fff"/><stop offset="1" stop-color="#ffbcd5" stop-opacity="0"/></radialGradient><linearGradient id="w" x1="1183.5" x2="1168" y1="671.49" y2="686.96" gradientTransform="matrix(.12828 0 0 .12828 -125.92 -78.731)" gradientUnits="userSpaceOnUse"><stop offset="0" stop-color="#f7c3a1"/><stop offset=".472" stop-color="#f1b38e"/><stop offset="1" stop-color="#f17571"/></linearGradient><linearGradient id="y" x1="1180.2" x2="1180.2" y1="688.53" y2="658.13" gradientTransform="matrix(.13541 0 0 .13541 -134.36 -83.545)" gradientUnits="userSpaceOnUse"><stop offset="0" stop-color="#f6b7a8"/><stop offset="1" stop-color="#fee9d6"/></linearGradient><linearGradient id="x" x1="1179.3" x2="1195.1" y1="678.06" y2="662.17" gradientTransform="matrix(.13541 0 0 .13541 -134.36 -83.545)" gradientUnits="userSpaceOnUse"><stop offset="0" stop-color="#ad4e07"/><stop offset="1" stop-color="#e9744d"/></linearGradient><linearGradient id="z" x1="529.25" x2="535.44" y1="-1568.6" y2="-1574.8" gradientTransform="matrix(.039196 0 0 .039196 3.2962 73.464)" gradientUnits="userSpaceOnUse"><stop offset="0" stop-color="green"/><stop offset="1" stop-color="#0f0" stop-opacity="0"/></linearGradient></defs><path fill="#fff" fill-rule="evenodd" stroke-width=".265" d="m3.4395 1.3229h-1.0583v14.287h12.171v-11.112l-2.9104-3.1749z" style="paint-order:stroke fill markers"/><path fill="#d17520" d="m3.4395 1.0583-1.3229 1.25e-5v14.816l1.3229 4.23e-4h10.054l1.3229-4.23e-4 2.5e-5 -11.641-3.1749-3.1749zm0 0.52916h7.9828l2.8649 2.8649 1.9e-5 10.893-0.79375-4.5e-4h-10.054l-0.79369 4.5e-4v-13.758l0.79369-8.387e-4z" color="#000" color-rendering="auto" dominant-baseline="auto" image-rendering="auto" shape-rendering="auto" solid-color="#000000" style="font-feature-settings:normal;font-variant-alternates:normal;font-variant-caps:normal;font-variant-ligatures:normal;font-variant-numeric:normal;font-variant-position:normal;isolation:auto;mix-blend-mode:normal;paint-order:fill markers stroke;shape-padding:0;text-decoration-color:#000;text-decoration-line:none;text-decoration-style:solid;text-indent:0;text-orientation:mixed;text-transform:none;white-space:normal"/><path fill="#d17520" fill-rule="evenodd" d="m12.171 1.0583 2.6458 2.6458-3.75e-4 -1.3229-5e-5 -1.3229z" style="paint-order:stroke fill markers"/><g transform="translate(-18.982 -.45486)"><path fill="none" stroke="#000" stroke-width=".118" d="m28.264 8.0396a2.2342 2.2342 0 1 1-4.4684 0 2.2342 2.2342 0 1 1 4.4684 0z" color="#000" enable-background="new" opacity=".15"/><path fill="url(#y)" stroke="url(#x)" stroke-width=".118" d="m28.264 7.922a2.2342 2.2342 0 1 1-4.4684 0 2.2342 2.2342 0 1 1 4.4684 0z" color="#000" enable-background="new"/><path fill="url(#w)" d="m28.147 7.9222a2.1166 2.1166 0 1 1-4.2332 0 2.1166 2.1166 0 1 1 4.2332 0z" color="#000" enable-background="new"/><path d="m26.609 8.0401a0.060859 0.056509 0 0 0-9e-3 0.0083 0.060859 0.056509 0 0 0-0.03579 0.02492l-1.1722 1.8778-1.1633 1.8861a0.060859 0.056509 0 0 0-0.0089 0.0083 0.060859 0.056509 0 0 0 0 0.01662 0.060859 0.056509 0 0 0 0 0.01662 0.060859 0.056509 0 0 0 0.0089 0.01662 0.060859 0.056509 0 0 0 9e-3 0.0083 0.060859 0.056509 0 0 0 9e-3 0.0083 0.060859 0.056509 0 0 0 0.03579 0.0083h4.671a0.060859 0.056509 0 0 0 0.03579-0.0083 0.060859 0.056509 0 0 0 9e-3 -0.0083 0.060859 0.056509 0 0 0 9e-3 -0.0083 0.060859 0.056509 0 0 0 0.0089-0.01662 0.060859 0.056509 0 0 0 0-0.01662 0.060859 0.056509 0 0 0 0-0.01662 0.060859 0.056509 0 0 0-0.0089-0.0083l-1.1633-1.8861-1.1722-1.8778a0.060859 0.056509 0 0 0-0.0358-0.02492 0.060859 0.056509 0 0 0-0.0179-0.0083 0.060859 0.056509 0 0 0-0.0089 0zm0.0089 0.17448 1.1185 1.7947 1.1186 1.7947h-4.4742l1.1186-1.7947z" color="#000" enable-background="new" opacity=".15" style="text-decoration-line:none;text-indent:0;text-transform:none"/><path fill="url(#h)" d="m28.029 6.9819a1.2935 1.2935 0 1 1-2.587 0 1.2935 1.2935 0 1 1 2.587 0z" color="#000" enable-background="new" opacity=".25"/><rect width="3.88" height="3.88" x="27.279" y="7.158" color="#000" enable-background="new" opacity=".15" rx=".118" ry=".118"/><rect width="3.88" height="3.88" x="27.279" y="7.04" fill="url(#v)" color="#000" enable-background="new" opacity=".8" rx=".118" ry=".118"/><rect width="3.645" height="3.645" x="27.397" y="7.158" fill="url(#u)" color="#000" enable-background="new"/><rect width="3.528" height="3.528" x="27.456" y="7.217" fill="url(#t)" color="#000" enable-background="new"/><rect width="1.764" height="3.528" x="-30.984" y="7.217" fill="url(#s)" color="#000" enable-background="new" opacity=".35" transform="scale(-1,1)"/><rect width="1.764" height="3.528" x="27.456" y="7.217" fill="url(#r)" color="#000" enable-background="new" opacity=".5"/><path fill="url(#q)" d="m26.609 7.9225a0.060859 0.056509 0 0 0-9e-3 0.0083 0.060859 0.056509 0 0 0-0.03579 0.02492l-1.1722 1.8778-1.1633 1.8861a0.060859 0.056509 0 0 0-0.0089 0.0083 0.060859 0.056509 0 0 0 0 0.01661 0.060859 0.056509 0 0 0 0 0.01662 0.060859 0.056509 0 0 0 0.0089 0.01662 0.060859 0.056509 0 0 0 9e-3 0.0083 0.060859 0.056509 0 0 0 9e-3 0.0083 0.060859 0.056509 0 0 0 0.03579 0.0083h4.671a0.060859 0.056509 0 0 0 0.03579-0.0083 0.060859 0.056509 0 0 0 9e-3 -0.0083 0.060859 0.056509 0 0 0 9e-3 -0.0083 0.060859 0.056509 0 0 0 0.0089-0.01662 0.060859 0.056509 0 0 0 0-0.01662 0.060859 0.056509 0 0 0 0-0.01661 0.060859 0.056509 0 0 0-0.0089-0.0083l-1.1633-1.8861-1.1722-1.8778a0.060859 0.056509 0 0 0-0.0358-0.02492 0.060859 0.056509 0 0 0-0.0179-0.0083 0.060859 0.056509 0 0 0-0.0089 0zm0.0089 0.17448 1.1185 1.7947 1.1186 1.7947h-4.4742l1.1186-1.7947z" color="#000" enable-background="new" style="text-decoration-line:none;text-indent:0;text-transform:none"/><path fill="url(#p)" d="m28.852 11.685h-4.4684l2.2342-3.5864 1.1171 1.7932z" color="#000" enable-background="new"/><path fill="url(#o)" d="m28.764 11.626h-4.292l2.146-3.41 1.073 1.705z" color="#000" enable-background="new"/><path fill="url(#j)" d="m25.903 11.626h-1.4307l0.71534-1.1367 0.35767 0.56835z" color="#000" enable-background="new" opacity=".35"/><path fill="url(#i)" d="m27.323 11.626h1.4307l-0.35768-0.56835-0.35767-0.56835-0.35767 0.56835z" color="#000" enable-background="new" opacity=".35"/><rect width="1.47" height="2.94" x="10.215" y="-28.029" fill="url(#g)" color="#000" enable-background="new" opacity=".5" transform="rotate(90)"/><path fill="url(#n)" d="m27.147 9.0686h-1.0583l0.26458-0.42626 0.26457-0.42626 0.26457 0.42626z" color="#000" enable-background="new" opacity=".25"/><rect id="c" width=".647" height=".647" x="23.943" y="11.421" fill="#9ef290" stroke="#18a303" stroke-width=".059" color="#000" enable-background="new" opacity=".75"/><path fill="none" d="m28.397 10.862h2.7046v-3.7629h-3.7629v2.0696z" color="#000" enable-background="new"/><rect width="1.646" height=".059" x="28.397" y="10.686" fill="url(#m)" color="#000" enable-background="new" opacity=".25"/><rect width=".706" height=".059" x="26.265" y="8.334" color="#000" enable-background="new" opacity=".15"/><rect id="b" width=".47" height=".47" x="24.031" y="11.509" fill="url(#z)" color="#000" enable-background="new" opacity=".75"/><rect width=".706" height=".118" x="23.914" y="12.097" color="#000" enable-background="new" opacity=".05"/><rect width="4.233" height=".059" x="24.384" y="11.568" fill="url(#l)" color="#000" enable-background="new" opacity=".1"/><path fill="url(#k)" d="m27.464 9.0817-0.05145 0.03124 1.0348 1.6903 0.05145-0.03124z" color="#000" enable-background="new" opacity=".5" style="text-decoration-line:none;text-indent:0;text-transform:none"/><rect width="1.764" height="3.528" x="-8.922" y="-30.984" fill="url(#f)" color="#000" enable-background="new" opacity=".5" transform="matrix(0,-1,-1,0,0,0)"/><use width="5033" height="1085" enable-background="new" transform="translate(2.3518 -3.7629)" xlink:href="#c"/><use width="5033" height="1085" enable-background="new" transform="translate(2.3518 -3.7629)" xlink:href="#b"/><rect width=".706" height=".118" x="28.617" y="12.097" color="#000" enable-background="new" opacity=".05"/><use width="5033" height="1085" enable-background="new" transform="translate(4.7036 2.0113e-6)" xlink:href="#c"/><use width="5033" height="1085" enable-background="new" transform="translate(4.7036 2.0113e-6)" xlink:href="#b"/></g></svg>