<svg xmlns="http://www.w3.org/2000/svg" xmlns:xlink="http://www.w3.org/1999/xlink" width="64" height="64" version="1.1" viewBox="0 0 16.933 16.933"><defs><linearGradient id="c" x1="230" x2="230" y1="-581.64" y2="-578.64" gradientTransform="matrix(1.7499 0 0 1.5 3002.5 -245.19)" gradientUnits="userSpaceOnUse"><stop offset="0" stop-color="#63bbee"/><stop offset="1" stop-color="#aadcf7"/></linearGradient><linearGradient id="b" x1="445.7" x2="441.39" y1="1103.6" y2="1099.8" gradientUnits="userSpaceOnUse"><stop offset="0" stop-color="#e9b913"/><stop offset="1" stop-color="#ff0"/></linearGradient><linearGradient id="a" x1="345" x2="345" y1="1173" y2="1178" gradientTransform="matrix(1.75 0 0 1.6513 2787.2 -3053.9)" gradientUnits="userSpaceOnUse"><stop offset="0" stop-color="#92e285"/><stop offset="1" stop-color="#18a303"/></linearGradient></defs><g><path fill="#f9f9f9" fill-rule="evenodd" stroke-width=".265" d="m3.4395 1.3229h-1.0583v14.287h12.171v-11.112l-2.9104-3.1749z" style="paint-order:stroke fill markers"/><path fill="#5b5b5b" d="m3.4395 1.0583-1.3229 1.25e-5v14.816l1.3229 4.23e-4h10.054l1.3229-4.23e-4 2.5e-5 -11.641-3.1749-3.1749zm0 0.52916h7.9828l2.8649 2.8649 1.9e-5 10.893-0.79375-4.5e-4h-10.054l-0.79369 4.5e-4v-13.758l0.79369-8.387e-4z" color="#000" color-rendering="auto" dominant-baseline="auto" image-rendering="auto" shape-rendering="auto" solid-color="#000000" style="font-feature-settings:normal;font-variant-alternates:normal;font-variant-caps:normal;font-variant-ligatures:normal;font-variant-numeric:normal;font-variant-position:normal;isolation:auto;mix-blend-mode:normal;paint-order:fill markers stroke;shape-padding:0;text-decoration-color:#000;text-decoration-line:none;text-decoration-style:solid;text-indent:0;text-orientation:mixed;text-transform:none;white-space:normal"/><path fill="#5b5b5b" fill-rule="evenodd" d="m12.171 1.0583 2.6458 2.6458-3.75e-4 -1.3229-5e-5 -1.3229z" style="paint-order:stroke fill markers"/></g><g><g transform="translate(-5.6126 -12.799) matrix(.13229 0 0 .13229 -432.26 165.81)"><g fill="#fff"><rect width="24" height="2" x="3376" y="-1096.6" opacity=".6"/><rect width="16" height="11" x="3390" y="-1117.6" opacity=".6"/><rect width="12" height="2" x="3376" y="-1116.6" opacity=".6"/><rect width="12" height="2" x="3376" y="-1112.6" opacity=".6"/><rect width="12" height="2" x="3376" y="-1108.6" opacity=".6"/><rect width="30" height="2" x="3376" y="-1104.6" opacity=".6"/><rect width="30" height="2" x="3376" y="-1100.6" opacity=".6"/></g><rect width="16" height="11" x="3390" y="-1118.6" fill="#1c99e0"/><rect width="13.999" height="9" x="3391" y="-1117.6" fill="url(#c)"/><path fill="#fff" d="m3399.2-1112.3-4.0835-4.8462-4.0834 5.923v1.077h14v-1.077l-2.9164-3.2307z" opacity=".5"/><path fill="#fff" d="m448.77 1099.7a7.5845 4.6875 0 0 1-7.5845 4.6875v-4.6875z" opacity=".5" transform="matrix(0 .65924 -1.0667 0 4578 -1408.5)"/><path fill="url(#b)" d="m448.77 1099.7a7.5845 4.6875 0 0 1-7.5845 4.6875v-4.6875z" opacity=".74" transform="matrix(0 .53938 -.88891 0 4382.5 -1355.6)"/><path fill="url(#a)" d="m3399.2-1110.8-4.0835-4.8462-4.0834 5.923v1.077h14v-1.077l-2.9164-3.2307z"/><rect width="13" height="8" x="3391.5" y="-1117.1" fill="none" stroke="#fff" opacity=".35"/><g fill="#1c99e0"><rect width="12" height="2" x="3376" y="-1117.6"/><rect width="12" height="2" x="3376" y="-1113.6"/><rect width="12" height="2" x="3376" y="-1109.6"/><rect width="30" height="2" x="3376" y="-1105.6"/><rect width="30" height="2" x="3376" y="-1101.6"/><rect width="24" height="2" x="3376" y="-1097.6"/></g></g><g transform="translate(-5.6126 -12.799) matrix(.13229 0 0 .13229 -432.26 169.51)"><g fill="#fff"><rect width="24" height="2" x="3376" y="-1096.6" opacity=".6"/><rect width="16" height="11" x="3390" y="-1117.6" opacity=".6"/><rect width="12" height="2" x="3376" y="-1116.6" opacity=".6"/><rect width="12" height="2" x="3376" y="-1112.6" opacity=".6"/><rect width="12" height="2" x="3376" y="-1108.6" opacity=".6"/><rect width="30" height="2" x="3376" y="-1104.6" opacity=".6"/><rect width="30" height="2" x="3376" y="-1100.6" opacity=".6"/></g><rect width="16" height="11" x="3390" y="-1118.6" fill="#1c99e0"/><rect width="13.999" height="9" x="3391" y="-1117.6" fill="url(#c)"/><path fill="#fff" d="m3399.2-1112.3-4.0835-4.8462-4.0834 5.923v1.077h14v-1.077l-2.9164-3.2307z" opacity=".5"/><path fill="#fff" d="m448.77 1099.7a7.5845 4.6875 0 0 1-7.5845 4.6875v-4.6875z" opacity=".5" transform="matrix(0 .65924 -1.0667 0 4578 -1408.5)"/><path fill="url(#b)" d="m448.77 1099.7a7.5845 4.6875 0 0 1-7.5845 4.6875v-4.6875z" opacity=".74" transform="matrix(0 .53938 -.88891 0 4382.5 -1355.6)"/><path fill="url(#a)" d="m3399.2-1110.8-4.0835-4.8462-4.0834 5.923v1.077h14v-1.077l-2.9164-3.2307z"/><rect width="13" height="8" x="3391.5" y="-1117.1" fill="none" stroke="#fff" opacity=".35"/><g fill="#1c99e0"><rect width="12" height="2" x="3376" y="-1117.6"/><rect width="12" height="2" x="3376" y="-1113.6"/><rect width="12" height="2" x="3376" y="-1109.6"/><rect width="30" height="2" x="3376" y="-1105.6"/><rect width="30" height="2" x="3376" y="-1101.6"/><rect width="24" height="2" x="3376" y="-1097.6"/></g></g><g transform="translate(-5.6126 -12.799) matrix(.13229 0 0 .13229 -436.76 169.51)"><g fill="#fff"><rect width="24" height="2" x="3376" y="-1096.6" opacity=".6"/><rect width="16" height="11" x="3390" y="-1117.6" opacity=".6"/><rect width="12" height="2" x="3376" y="-1116.6" opacity=".6"/><rect width="12" height="2" x="3376" y="-1112.6" opacity=".6"/><rect width="12" height="2" x="3376" y="-1108.6" opacity=".6"/><rect width="30" height="2" x="3376" y="-1104.6" opacity=".6"/><rect width="30" height="2" x="3376" y="-1100.6" opacity=".6"/></g><rect width="16" height="11" x="3390" y="-1118.6" fill="#1c99e0"/><rect width="13.999" height="9" x="3391" y="-1117.6" fill="url(#c)"/><path fill="#fff" d="m3399.2-1112.3-4.0835-4.8462-4.0834 5.923v1.077h14v-1.077l-2.9164-3.2307z" opacity=".5"/><path fill="#fff" d="m448.77 1099.7a7.5845 4.6875 0 0 1-7.5845 4.6875v-4.6875z" opacity=".5" transform="matrix(0 .65924 -1.0667 0 4578 -1408.5)"/><path fill="url(#b)" d="m448.77 1099.7a7.5845 4.6875 0 0 1-7.5845 4.6875v-4.6875z" opacity=".74" transform="matrix(0 .53938 -.88891 0 4382.5 -1355.6)"/><path fill="url(#a)" d="m3399.2-1110.8-4.0835-4.8462-4.0834 5.923v1.077h14v-1.077l-2.9164-3.2307z"/><rect width="13" height="8" x="3391.5" y="-1117.1" fill="none" stroke="#fff" opacity=".35"/><g fill="#1c99e0"><rect width="12" height="2" x="3376" y="-1117.6"/><rect width="12" height="2" x="3376" y="-1113.6"/><rect width="12" height="2" x="3376" y="-1109.6"/><rect width="30" height="2" x="3376" y="-1105.6"/><rect width="30" height="2" x="3376" y="-1101.6"/><rect width="24" height="2" x="3376" y="-1097.6"/></g></g><g transform="translate(-5.6126 -12.799) matrix(.13229 0 0 .13229 -436.76 165.81)"><g fill="#fff"><rect width="24" height="2" x="3376" y="-1096.6" opacity=".6"/><rect width="16" height="11" x="3390" y="-1117.6" opacity=".6"/><rect width="12" height="2" x="3376" y="-1116.6" opacity=".6"/><rect width="12" height="2" x="3376" y="-1112.6" opacity=".6"/><rect width="12" height="2" x="3376" y="-1108.6" opacity=".6"/><rect width="30" height="2" x="3376" y="-1104.6" opacity=".6"/><rect width="30" height="2" x="3376" y="-1100.6" opacity=".6"/></g><rect width="16" height="11" x="3390" y="-1118.6" fill="#1c99e0"/><rect width="13.999" height="9" x="3391" y="-1117.6" fill="url(#c)"/><path fill="#fff" d="m3399.2-1112.3-4.0835-4.8462-4.0834 5.923v1.077h14v-1.077l-2.9164-3.2307z" opacity=".5"/><path fill="#fff" d="m448.77 1099.7a7.5845 4.6875 0 0 1-7.5845 4.6875v-4.6875z" opacity=".5" transform="matrix(0 .65924 -1.0667 0 4578 -1408.5)"/><path fill="url(#b)" d="m448.77 1099.7a7.5845 4.6875 0 0 1-7.5845 4.6875v-4.6875z" opacity=".74" transform="matrix(0 .53938 -.88891 0 4382.5 -1355.6)"/><path fill="url(#a)" d="m3399.2-1110.8-4.0835-4.8462-4.0834 5.923v1.077h14v-1.077l-2.9164-3.2307z"/><rect width="13" height="8" x="3391.5" y="-1117.1" fill="none" stroke="#fff" opacity=".35"/><g fill="#1c99e0"><rect width="12" height="2" x="3376" y="-1117.6"/><rect width="12" height="2" x="3376" y="-1113.6"/><rect width="12" height="2" x="3376" y="-1109.6"/><rect width="30" height="2" x="3376" y="-1105.6"/><rect width="30" height="2" x="3376" y="-1101.6"/><rect width="24" height="2" x="3376" y="-1097.6"/></g></g></g></svg>