<svg xmlns="http://www.w3.org/2000/svg" version="1.1" viewBox="0 0 64 64"><rect width="64" height="64" y="-.012" fill="none" opacity=".75" rx="0" ry="0"/><path fill="#d00310" stroke-width="3.78" d="m8.9992 1.0016h46.002v59h-45.998v-59z" color="#000" overflow="visible"/><path fill="none" stroke="#9c020c" stroke-linecap="round" stroke-linejoin="round" stroke-width="1.002" d="m8.5003 0.49889 46.999 0.00378v59.997h-46.996v-60.001z" color="#000" overflow="visible"/><path fill="#fff" d="m21 19.501v22h22v-22h-21zm1 1h20v20h-20zm2 3v1h1v-1zm1 1v2h2v-2zm2 0h1v-1h-1zm0 2v1h1v-1zm-2 0h-1v1h1zm11-3v1h1v-1zm1 1v2h2v-2zm2 0h1v-1h-1zm0 2v1h1v-1zm-2 0h-1v1h1zm-8 5v2h6v-2zm6 2v2h2v-2zm2 2v2h2v-2zm-8-2h-2v2h2zm-2 2h-2v2h2z" color="#000" color-rendering="auto" image-rendering="auto" opacity=".75" shape-rendering="auto" solid-color="#000000" style="isolation:auto;mix-blend-mode:normal"/></svg>