<svg xmlns="http://www.w3.org/2000/svg" xmlns:xlink="http://www.w3.org/1999/xlink" width="64" height="64" version="1.1" viewBox="0 0 16.933 16.933"><g stroke-width=".265"><path fill="none" d="m0-2.8e-4h16.933v16.933h-16.933z"/><rect width="12.171" height="14.287" x="2.381" y="-15.61" fill="#74c9e0" color="#bebebe" overflow="visible" ry="0" transform="rotate(90)"/><rect width="12.435" height="14.552" x="2.249" y="-15.743" fill="none" stroke="#2897b4" color="#bebebe" opacity=".9" overflow="visible" ry="0" transform="rotate(90)"/></g><path fill="#185e76" stroke-width=".265" d="m8.4666 2.3809h0.26458v12.171h-0.26458z" opacity=".35"/><path fill="#185e76" stroke-width=".265" d="m5.5561 5.5561v5.8207h5.8207v-5.8207zm0.26458 0.26458h5.2916v0.52916h-5.2916zm0 0.79373h0.26458v1.0583h-0.26458zm0.52916 0h0.26458v1.0583h-0.26458zm0.52916 0h0.26458v1.0583h-0.26458zm0.52916 0h0.26458v1.0583h-0.26458zm0.52916 0h0.26458v1.0583h-0.26458zm0.52916 0h0.26458v1.0583h-0.26458zm0.52916 0h0.26458v1.0583h-0.26458zm0.52916 0h0.26458v1.0583h-0.26458zm0.52916 0.26458h1.0583v0.26458h-1.0583zm-4.2333 1.0583h5.2916v1.0583h-5.2916zm0 1.3229h0.26458v1.0583h-0.26458zm0.52916 0h0.26458v1.0583h-0.26458zm0.52916 0h0.26458v1.0583h-0.26458zm0.52916 0h0.26458v1.0583h-0.26458zm0.52916 0h0.26458v1.0583h-0.26458zm0.52916 0h0.26458v1.0583h-0.26458zm0.52916 0h0.26458v1.0583h-0.26458zm0.52916 0h0.26458v1.0583h-0.26458zm0.52916 0.26458h1.0583v0.26458h-1.0583zm-4.2333 1.0583h5.2916v0.52916h-5.2916z" color="#4d4d4d" color-rendering="auto" image-rendering="auto" opacity=".75" shape-rendering="auto"/></svg>