<svg xmlns="http://www.w3.org/2000/svg" width="64" height="64" version="1.1" viewBox="0 0 64 64"><g transform="matrix(1 0 0 1 0 -988.38)"><path fill="#f1c36c" d="m8.991 989.37 46.01 4e-3v57.985h-46.009v-57.989z"/><path fill="none" stroke="#b59251" stroke-linejoin="round" stroke-width=".745" d="m6.5 0.5 35 3e-3v44.003h-35z" transform="matrix(1.3428 0 0 1.3408 -.228 988.19)"/><rect width="64" height="64" y="988.36" fill="none" opacity=".75" rx="0" ry="0"/></g><path d="m23.996 20.992v2h-3v16h22v-16h-3v-2h-5v2h-6v-2zm1 1h3v2h8v-2h3v2h3v14h-20v-14h3z" color="#000" color-rendering="auto" image-rendering="auto" opacity=".6" shape-rendering="auto" solid-color="#000000" style="isolation:auto;mix-blend-mode:normal"/></svg>