<svg xmlns="http://www.w3.org/2000/svg" xmlns:xlink="http://www.w3.org/1999/xlink" width="64" height="64" version="1.1"><path fill-opacity=".239" stroke-width="1.042" d="m9 5h46v54h-46z"/><g fill="#e1e3e7"><path d="m386.57 497.8h44v52h-44z" transform="translate(-376.57 -491.8)"/><path d="m10 44v6h44v-6z"/><path d="m10 36v6h44v-6z"/></g><path d="m47 36h7v6h-7zm-37 0h7v6h-7zm37 8h7v6h-7zm-37 0h7v6h-7zm37 8h7v6h-7zm-37 0h7v6h-7z" opacity=".2"/><g stroke-width="1.857"><path fill="#4c5263" d="M16 36h32v6H16zm0 8h32v6H16zm0 8h32v6H16z"/><path fill="#e9eaee" d="M20 38h14v2H20zm16 0h8v2h-8zm-16 8h14v2H20zm16 0h8v2h-8zm-16 8h14v2H20zm16 0h8v2h-8z"/></g><g><path fill="#4c5263" d="M11 42h42v2H11zm0 8h42v2H11z" opacity=".6"/><path fill="#edeff3" stroke="#cbcdd1" d="M20 8a6 6 0 0 0-6 6v4.541A4 4 0 0 1 16 22a4 4 0 0 1-2 3.459V30l4 4h28l4-4v-4.541A4 4 0 0 1 48 22a4 4 0 0 1 2-3.459V14a6 6 0 0 0-6-6z"/><path fill="#4c5263" stroke-width="1.024" d="m10 42h4.1905v2h-4.1905zm40 0h4v2h-4zm0 8h4v2h-4zm-40 0h4.1905v2h-4.1905z"/></g><rect width="2" height="2" x="11" y="7" fill="#8c8c8c" rx="1" ry="1"/><g><rect width="1" height="23" x="9" y="36" opacity=".15" ry="0"/><rect width="1" height="23" x="54" y="36" opacity=".15" ry="0"/><rect width="1" height="44" x="-59" y="10" opacity=".15" ry="0" transform="rotate(-90)"/><rect width="1" height="22" x="16" y="36" opacity=".15" ry="0"/><rect width="1" height="22" x="47" y="36" opacity=".15" ry="0"/></g><g fill="#8c8c8c"><rect width="2" height="2" x="51" y="7" rx="1" ry="1"/><rect width="2" height="2" x="11" y="33" rx="1" ry="1"/><rect width="2" height="2" x="51" y="33" rx="1" ry="1"/><rect width="2" height="2" x="11" y="20" rx="1" ry="1"/><rect width="2" height="2" x="51" y="20" rx="1" ry="1"/></g></svg>