<svg xmlns="http://www.w3.org/2000/svg" xmlns:xlink="http://www.w3.org/1999/xlink" width="64" height="64" version="1.1"><g transform="translate(161,38.64)"><path fill="#e1e3e7" d="m-150-33.64v54h42v-54z"/><rect width="43" height="55" x="-150.5" y="-34.14" fill="none" stroke="#000" stroke-opacity=".24" rx=".5" ry=".5"/><g fill="#8c8c8c"><rect width="2" height="2" x="-149" y="-32.64" rx="1" ry="1"/><rect width="2" height="2" x="-111" y="-32.64" rx="1" ry="1"/><rect width="2" height="2" x="-111" y="17.36" rx="1" ry="1"/><rect width="2" height="2" x="-149" y="17.36" rx="1" ry="1"/><rect width="2" height="2" x="-149" y="-7.64" rx="1" ry="1"/><rect width="2" height="2" x="-111" y="-7.64" rx="1" ry="1"/></g><path fill="#edeff3" stroke="#cbcdd1" d="m-122-30.14-17.934 18.17a16.5 16.5 0 0 0-5.566 12.33 16.5 16.5 0 0 0 16.5 16.5 16.5 16.5 0 0 0 16.5-16.5 16.5 16.5 0 0 0-0.03-0.852 0.492 0.492 0 0 0 0.03-0.148v-29c0-0.277-0.223-0.5-0.5-0.5z"/><rect width="20" height="12" x="-143.5" y="-27.14" fill="#4c5263" stroke="#313643" rx="1.5" ry="1.5"/><path fill="#e9eaee" d="m-142-24.64v1h3.19v-1zm3.609 0v1h3.021v-1zm3.441 0v1h2.644v-1zm3.063 0v1h1.175v-1zm-10.113 3v1h5.078v-1zm5.581 0v1h2.434v-1zm2.896 0v1h1.133v-1zm-8.477 3v1h5.623v-1zm6.043 0v1h2.943v-1zm5.957 0v1h5.078v-1z"/></g><path fill="#4c5263" d="m32 26c-3.324 0-6 2.676-6 6v6h-4v12h20v-12h-4v-6c0-3.324-2.676-6-6-6m0 2c2.492 0 4 1.092 4 4v6h-8v-6c0-2.908 1.508-4 4-4"/></svg>