<svg id="visual" viewBox="0 0 675 900" width="675" height="900" xmlns="http://www.w3.org/2000/svg" xmlns:xlink="http://www.w3.org/1999/xlink" version="1.1"><path d="M0 306L28.2 315.5C56.3 325 112.7 344 169 358.7C225.3 373.3 281.7 383.7 337.8 380.5C394 377.3 450 360.7 506.2 355C562.3 349.3 618.7 354.7 646.8 357.3L675 360L675 901L646.8 901C618.7 901 562.3 901 506.2 901C450 901 394 901 337.8 901C281.7 901 225.3 901 169 901C112.7 901 56.3 901 28.2 901L0 901Z" fill="#8594ef"></path><path d="M0 419L28.2 431.3C56.3 443.7 112.7 468.3 169 476.5C225.3 484.7 281.7 476.3 337.8 470.3C394 464.3 450 460.7 506.2 463.5C562.3 466.3 618.7 475.7 646.8 480.3L675 485L675 901L646.8 901C618.7 901 562.3 901 506.2 901C450 901 394 901 337.8 901C281.7 901 225.3 901 169 901C112.7 901 56.3 901 28.2 901L0 901Z" fill="#697dea"></path><path d="M0 529L28.2 533.5C56.3 538 112.7 547 169 546.3C225.3 545.7 281.7 535.3 337.8 543C394 550.7 450 576.3 506.2 580.8C562.3 585.3 618.7 568.7 646.8 560.3L675 552L675 901L646.8 901C618.7 901 562.3 901 506.2 901C450 901 394 901 337.8 901C281.7 901 225.3 901 169 901C112.7 901 56.3 901 28.2 901L0 901Z" fill="#4866e4"></path><path d="M0 691L28.2 684.7C56.3 678.3 112.7 665.7 169 657C225.3 648.3 281.7 643.7 337.8 644.5C394 645.3 450 651.7 506.2 650.3C562.3 649 618.7 640 646.8 635.5L675 631L675 901L646.8 901C618.7 901 562.3 901 506.2 901C450 901 394 901 337.8 901C281.7 901 225.3 901 169 901C112.7 901 56.3 901 28.2 901L0 901Z" fill="#3e57c7"></path><path d="M0 741L28.2 745.2C56.3 749.3 112.7 757.7 169 760C225.3 762.3 281.7 758.7 337.8 758.8C394 759 450 763 506.2 766.2C562.3 769.3 618.7 771.7 646.8 772.8L675 774L675 901L646.8 901C618.7 901 562.3 901 506.2 901C450 901 394 901 337.8 901C281.7 901 225.3 901 169 901C112.7 901 56.3 901 28.2 901L0 901Z" fill="#3348aa"></path></svg>