<svg xmlns="http://www.w3.org/2000/svg" xmlns:xlink="http://www.w3.org/1999/xlink" id="visual" width="900" height="450" version="1.1" viewBox="0 0 900 450"><path fill="#8594ef" stroke-linecap="round" stroke-linejoin="miter" d="M0 198L30 205.2C60 212.3 120 226.7 180 225.8C240 225 300 209 360 210.8C420 212.7 480 232.3 540 233.5C600 234.7 660 217.3 720 209.3C780 201.3 840 202.7 870 203.3L900 204L900 451L870 451C840 451 780 451 720 451C660 451 600 451 540 451C480 451 420 451 360 451C300 451 240 451 180 451C120 451 60 451 30 451L0 451Z"/></svg>