<svg xmlns="http://www.w3.org/2000/svg" xmlns:xlink="http://www.w3.org/1999/xlink" id="visual" viewBox="0 0 960 540" width="960" height="540" version="1.1"><path d="M0 416L22.8 420C45.7 424 91.3 432 137 432.5C182.7 433 228.3 426 274 422.2C319.7 418.3 365.3 417.7 411.2 425.3C457 433 503 449 548.8 450.7C594.7 452.3 640.3 439.7 686 432.3C731.7 425 777.3 423 823 428.8C868.7 434.7 914.3 448.3 937.2 455.2L960 462L960 541L937.2 541C914.3 541 868.7 541 823 541C777.3 541 731.7 541 686 541C640.3 541 594.7 541 548.8 541C503 541 457 541 411.2 541C365.3 541 319.7 541 274 541C228.3 541 182.7 541 137 541C91.3 541 45.7 541 22.8 541L0 541Z" fill="#4866e480"/><path d="M0 491L22.8 493.3C45.7 495.7 91.3 500.3 137 498.7C182.7 497 228.3 489 274 486.7C319.7 484.3 365.3 487.7 411.2 491.3C457 495 503 499 548.8 501.5C594.7 504 640.3 505 686 505.8C731.7 506.7 777.3 507.3 823 505.3C868.7 503.3 914.3 498.7 937.2 496.3L960 494L960 541L937.2 541C914.3 541 868.7 541 823 541C777.3 541 731.7 541 686 541C640.3 541 594.7 541 548.8 541C503 541 457 541 411.2 541C365.3 541 319.7 541 274 541C228.3 541 182.7 541 137 541C91.3 541 45.7 541 22.8 541L0 541Z" fill="#4866e4"/></svg>