<svg xmlns="http://www.w3.org/2000/svg" xmlns:xlink="http://www.w3.org/1999/xlink" id="visual" version="1.1" viewBox="0 180 900 496"><path d="M0 180L37.5 187.8C75 195.7 150 211.3 225 223.5C300 235.7 375 244.3 450 241.8C525 239.3 600 225.7 675 221C750 216.3 825 220.7 862.5 222.8L900 225L900 676L862.5 676C825 676 750 676 675 676C600 676 525 676 450 676C375 676 300 676 225 676C150 676 75 676 37.5 676L0 676Z" fill="#8594ef"/><path d="M0 274L37.5 284.2C75 294.3 150 314.7 225 321.5C300 328.3 375 321.7 450 316.8C525 312 600 309 675 311.3C750 313.7 825 321.3 862.5 325.2L900 329L900 676L862.5 676C825 676 750 676 675 676C600 676 525 676 450 676C375 676 300 676 225 676C150 676 75 676 37.5 676L0 676Z" fill="#697dea"/><path d="M0 365L37.5 368.8C75 372.7 150 380.3 225 379.8C300 379.3 375 370.7 450 377C525 383.3 600 404.7 675 408.5C750 412.3 825 398.7 862.5 391.8L900 385L900 676L862.5 676C825 676 750 676 675 676C600 676 525 676 450 676C375 676 300 676 225 676C150 676 75 676 37.5 676L0 676Z" fill="#4866e4"/><path d="M0 501L37.5 495.7C75 490.3 150 479.7 225 472.3C300 465 375 461 450 461.7C525 462.3 600 467.7 675 466.5C750 465.3 825 457.7 862.5 453.8L900 450L900 676L862.5 676C825 676 750 676 675 676C600 676 525 676 450 676C375 676 300 676 225 676C150 676 75 676 37.5 676L0 676Z" fill="#3e57c7"/><path d="M0 542L37.5 545.5C75 549 150 556 225 558C300 560 375 557 450 557.2C525 557.3 600 560.7 675 563.3C750 566 825 568 862.5 569L900 570L900 676L862.5 676C825 676 750 676 675 676C600 676 525 676 450 676C375 676 300 676 225 676C150 676 75 676 37.5 676L0 676Z" fill="#3348aa"/></svg>