<svg xmlns="http://www.w3.org/2000/svg" xmlns:xlink="http://www.w3.org/1999/xlink" version="1.1" viewBox="0 214.84 960 326.16"><path d="M0 275L22.8 270.7C45.7 266.3 91.3 257.7 137 267.2C182.7 276.7 228.3 304.3 274 296.3C319.7 288.3 365.3 244.7 411.2 226C457 207.3 503 213.7 548.8 233.3C594.7 253 640.3 286 686 285.5C731.7 285 777.3 251 823 234C868.7 217 914.3 217 937.2 217L960 217L960 541L937.2 541C914.3 541 868.7 541 823 541C777.3 541 731.7 541 686 541C640.3 541 594.7 541 548.8 541C503 541 457 541 411.2 541C365.3 541 319.7 541 274 541C228.3 541 182.7 541 137 541C91.3 541 45.7 541 22.8 541L0 541Z" fill="#4866e4" stroke-linecap="round" stroke-linejoin="miter"></path></svg>