<svg xmlns="http://www.w3.org/2000/svg" xmlns:xlink="http://www.w3.org/1999/xlink" id="svg" width="400" height="185.153" viewBox="0 0 400 185.153"><g id="svgg"><path id="path0" fill="#000" fill-rule="evenodd" stroke="none" d="M120.004 2.591 C 119.947 2.644,118.160 2.815,116.032 2.973 C 102.890 3.946,99.323 4.650,107.162 4.723 C 108.749 4.737,109.083 4.803,108.833 5.053 C 108.618 5.267,107.590 5.366,105.556 5.369 C 102.399 5.373,102.026 5.480,102.507 6.250 C 102.847 6.795,102.809 6.811,101.310 6.756 C 100.486 6.726,100.464 6.745,100.918 7.102 C 101.624 7.659,101.244 7.841,99.161 7.946 C 96.524 8.080,96.862 8.572,99.708 8.743 C 100.993 8.820,102.167 9.027,102.485 9.233 C 102.983 9.555,103.198 9.513,104.730 8.799 C 108.772 6.916,111.091 5.989,111.763 5.989 C 113.410 5.989,121.023 3.229,121.023 2.632 C 121.023 2.478,120.164 2.444,120.004 2.591 M141.859 2.999 C 139.938 3.114,137.804 3.335,137.118 3.491 C 136.432 3.646,132.782 3.865,129.008 3.975 L 122.146 4.177 119.599 5.212 C 117.488 6.070,113.609 6.973,111.978 6.985 C 111.664 6.988,111.769 8.406,112.102 8.669 C 112.274 8.804,113.749 8.983,115.381 9.067 C 118.633 9.233,118.746 9.281,120.061 11.079 C 120.453 11.614,120.774 12.347,120.774 12.708 C 120.774 13.124,121.047 13.604,121.522 14.020 C 122.871 15.204,122.619 16.170,120.524 17.842 C 119.563 18.608,118.764 19.315,118.748 19.412 C 118.098 23.299,118.823 25.334,121.304 26.591 C 123.315 27.610,124.037 27.354,125.783 24.998 C 128.094 21.880,128.933 21.291,132.024 20.612 C 133.308 20.330,134.533 19.829,135.838 19.053 C 137.513 18.056,138.024 17.881,139.809 17.689 C 141.900 17.464,145.676 16.779,146.030 16.561 C 146.688 16.154,146.145 15.721,144.978 15.721 C 143.784 15.721,143.334 15.427,144.085 15.139 C 144.304 15.055,144.388 14.803,144.304 14.483 C 144.153 13.904,144.941 14.069,146.057 14.850 C 146.651 15.267,148.113 15.350,148.342 14.980 C 148.424 14.848,148.009 14.403,147.421 13.993 C 145.132 12.396,145.231 12.547,146.351 12.361 C 148.959 11.927,151.742 9.959,152.095 8.297 C 152.161 7.988,152.267 7.477,152.331 7.162 C 152.479 6.437,153.957 5.591,155.732 5.216 C 158.424 4.647,158.882 3.853,156.363 4.123 C 155.000 4.269,154.490 4.196,152.807 3.612 C 150.514 2.816,147.622 2.654,141.859 2.999 M96.382 4.998 C 95.128 5.555,95.011 6.114,96.101 6.332 C 97.808 6.673,98.823 6.461,99.874 5.545 C 101.038 4.530,98.374 4.113,96.382 4.998 M238.603 5.540 C 237.733 6.409,238.207 6.565,243.035 6.995 C 246.490 7.303,246.538 7.317,246.538 8.000 C 246.538 8.574,246.741 8.598,247.396 8.102 C 247.926 7.702,249.532 7.597,249.532 7.963 C 249.532 8.848,248.059 9.411,245.377 9.548 C 241.788 9.733,239.959 10.135,240.176 10.692 C 240.494 11.508,240.401 11.583,238.811 11.790 C 237.565 11.953,236.825 12.238,235.567 13.039 C 234.316 13.834,233.675 14.083,232.814 14.103 C 231.166 14.143,231.192 14.722,232.915 16.312 C 234.478 17.755,234.688 18.532,233.749 19.391 C 232.534 20.504,231.552 20.287,232.447 19.104 C 233.047 18.311,232.888 17.847,231.299 15.738 C 229.081 12.795,227.918 12.274,226.427 13.557 C 225.282 14.541,225.774 15.399,228.481 17.142 C 229.043 17.504,228.471 18.077,227.823 17.802 C 225.542 16.834,218.456 15.440,218.639 15.996 C 218.702 16.188,219.156 16.379,219.649 16.421 C 220.437 16.488,221.077 17.060,220.740 17.397 C 220.680 17.457,218.909 17.534,216.804 17.569 C 213.074 17.632,212.934 17.654,211.354 18.423 C 209.398 19.376,209.232 19.386,208.711 18.590 C 208.425 18.154,208.077 17.966,207.553 17.966 C 206.783 17.966,206.749 18.099,207.228 19.258 C 207.369 19.600,207.128 19.753,205.897 20.098 C 204.717 20.429,204.378 20.634,204.318 21.052 C 204.250 21.532,204.100 21.580,202.807 21.536 C 201.245 21.483,200.990 21.704,202.053 22.189 C 202.674 22.472,202.694 22.521,202.282 22.752 C 201.365 23.265,200.213 22.752,198.522 21.077 C 196.638 19.212,196.674 19.186,200.275 19.820 C 203.290 20.351,205.368 19.717,204.092 18.656 C 203.390 18.072,199.942 17.004,198.181 16.826 C 197.397 16.746,196.187 16.406,195.492 16.069 C 191.073 13.932,183.653 15.262,180.489 18.759 C 177.495 22.068,176.530 22.881,174.386 23.899 C 171.707 25.172,171.571 25.339,171.756 27.141 C 172.011 29.639,173.367 30.436,175.513 29.349 L 176.688 28.754 177.277 29.536 C 177.601 29.966,178.116 30.855,178.422 31.511 C 179.441 33.701,181.134 33.467,182.506 30.947 C 182.891 30.240,183.587 29.314,184.054 28.890 C 185.119 27.921,185.116 27.881,183.897 26.720 C 182.704 25.585,182.831 24.848,184.385 23.893 C 184.876 23.591,185.975 22.697,186.827 21.907 C 189.239 19.669,189.989 20.505,188.129 23.359 C 186.178 26.353,187.090 27.363,191.642 27.252 C 193.399 27.209,194.655 27.279,194.746 27.426 C 195.041 27.904,193.755 28.291,191.977 28.261 C 189.639 28.221,188.992 28.610,189.858 29.532 C 190.729 30.459,190.455 30.817,188.873 30.817 L 187.523 30.817 187.448 32.139 C 187.353 33.790,186.429 34.556,184.820 34.316 C 184.230 34.228,183.342 34.338,182.502 34.603 C 181.398 34.951,180.947 34.981,180.121 34.760 C 179.484 34.590,178.815 34.570,178.337 34.707 C 177.407 34.974,176.317 34.278,177.036 33.876 C 177.248 33.757,177.538 33.732,177.680 33.820 C 178.084 34.069,178.665 33.441,178.665 32.754 C 178.665 32.215,178.581 32.152,178.041 32.285 C 177.698 32.370,177.137 32.508,176.794 32.593 C 176.182 32.744,176.174 32.726,176.329 31.595 C 176.516 30.231,176.454 30.208,175.305 31.217 C 174.335 32.069,174.244 32.525,174.785 33.822 C 175.215 34.851,174.869 35.197,172.918 35.683 C 172.170 35.869,171.245 36.424,170.185 37.321 C 169.303 38.067,168.476 38.677,168.347 38.677 C 168.218 38.677,167.571 39.183,166.911 39.800 C 166.127 40.534,165.486 40.923,165.064 40.923 C 164.708 40.923,164.077 41.099,163.662 41.314 C 163.246 41.529,162.438 41.784,161.865 41.882 C 160.483 42.118,160.527 42.613,161.999 43.370 C 163.742 44.267,164.185 46.328,163.023 48.131 C 162.640 48.724,162.630 48.726,159.236 48.563 C 155.080 48.364,155.143 48.331,154.921 50.830 C 154.825 51.900,154.668 53.412,154.571 54.189 C 154.315 56.241,154.528 56.837,155.587 57.035 C 156.066 57.125,156.919 57.532,157.481 57.939 C 158.499 58.677,158.505 58.678,159.040 58.193 C 159.362 57.901,160.109 57.648,160.914 57.558 C 162.617 57.369,163.834 56.471,164.487 54.924 C 165.389 52.788,165.561 52.566,167.062 51.594 C 168.216 50.847,168.565 50.480,168.584 49.991 C 168.619 49.127,169.052 48.917,170.805 48.912 C 171.980 48.908,172.607 48.747,173.719 48.160 C 175.392 47.278,175.577 47.320,176.505 48.787 C 177.396 50.195,178.962 51.550,179.920 51.742 C 181.234 52.005,182.482 53.408,182.642 54.802 L 182.782 56.020 183.361 55.441 C 183.800 55.002,183.921 54.640,183.860 53.944 L 183.780 53.026 184.716 53.099 C 186.011 53.200,185.886 52.822,184.331 51.932 C 182.761 51.034,179.830 48.602,178.992 47.502 C 178.010 46.214,178.828 45.601,180.114 46.661 C 180.615 47.073,181.142 47.411,181.285 47.411 C 181.428 47.411,181.936 47.732,182.414 48.125 C 182.891 48.518,183.853 49.128,184.553 49.482 C 186.028 50.228,186.515 50.866,186.772 52.385 C 186.999 53.729,187.745 54.515,189.179 54.921 L 190.268 55.229 189.582 55.485 C 188.764 55.791,188.763 55.799,189.392 56.831 C 190.681 58.945,192.073 56.712,190.899 54.412 C 190.386 53.405,190.693 52.594,191.418 53.042 C 191.589 53.148,191.861 53.029,192.056 52.762 C 192.339 52.376,192.762 52.293,194.597 52.265 C 197.348 52.224,197.637 52.074,196.750 51.148 C 195.620 49.968,198.309 44.417,200.011 44.417 C 200.432 44.417,201.562 45.530,201.447 45.830 C 201.021 46.939,202.749 47.462,204.105 46.635 L 204.965 46.110 204.122 45.756 C 203.126 45.337,203.295 45.155,205.576 44.195 C 207.296 43.471,207.329 43.549,206.477 46.346 C 206.339 46.798,206.457 46.987,207.099 47.344 C 210.990 49.510,211.915 50.573,210.769 51.558 C 209.839 52.358,208.311 52.342,206.296 51.512 C 204.030 50.578,202.427 50.462,200.897 51.120 C 200.216 51.413,199.387 51.653,199.055 51.653 C 198.724 51.653,197.988 51.990,197.420 52.402 C 196.747 52.889,196.086 53.150,195.525 53.150 C 194.372 53.150,194.195 53.548,194.982 54.370 C 195.340 54.743,195.634 55.268,195.634 55.535 C 195.637 57.160,198.099 58.642,199.527 57.878 C 200.041 57.603,200.294 57.600,200.949 57.863 C 202.410 58.450,202.648 58.461,204.146 58.007 C 205.767 57.517,206.941 57.913,206.165 58.688 C 206.000 58.854,205.864 59.613,205.864 60.374 C 205.864 61.664,205.158 64.098,204.582 64.794 C 203.812 65.725,195.267 64.844,192.290 63.528 C 189.476 62.284,188.147 62.435,188.147 64.000 C 188.147 64.526,187.933 65.095,187.586 65.491 L 187.024 66.131 185.153 65.486 C 183.963 65.076,183.054 64.585,182.658 64.136 C 181.915 63.298,181.444 63.054,179.788 62.650 C 177.893 62.188,176.830 61.276,176.996 60.256 C 177.431 57.573,176.676 56.684,174.452 57.260 C 173.545 57.495,171.877 57.642,170.114 57.642 C 167.057 57.642,166.349 57.804,163.639 59.126 C 161.800 60.023,161.081 60.066,159.470 59.373 L 158.274 58.858 155.760 61.322 C 154.216 62.835,153.191 64.045,153.105 64.457 C 153.027 64.826,152.911 65.381,152.847 65.689 C 152.673 66.528,151.294 68.073,150.238 68.611 C 149.111 69.186,147.824 70.833,145.632 74.507 C 143.826 77.532,143.710 78.057,144.388 80.130 C 145.029 82.090,144.694 84.092,143.425 85.888 C 143.187 86.225,143.212 86.490,143.544 87.187 C 143.881 87.895,143.909 88.216,143.686 88.855 C 143.453 89.521,143.476 89.684,143.825 89.879 C 144.053 90.007,144.183 90.205,144.112 90.319 C 144.042 90.432,144.273 90.715,144.627 90.947 C 145.684 91.639,146.656 92.849,147.629 94.682 C 150.030 99.205,152.973 100.931,156.875 100.104 C 158.203 99.823,159.621 99.684,160.448 99.754 C 161.592 99.850,162.341 99.693,164.970 98.805 L 168.120 97.741 169.261 98.293 C 170.128 98.713,170.470 99.051,170.685 99.703 L 170.968 100.561 172.557 100.561 C 175.326 100.561,176.237 102.051,175.535 105.427 C 174.900 108.480,174.983 108.807,176.952 111.023 C 177.675 111.836,178.320 112.882,178.569 113.643 C 178.797 114.340,179.249 115.439,179.573 116.087 C 179.955 116.851,180.169 117.726,180.181 118.582 C 180.192 119.307,180.345 120.293,180.521 120.774 C 180.815 121.575,180.784 121.763,180.143 123.045 C 178.015 127.299,177.932 129.027,179.672 132.819 C 181.071 135.867,181.741 138.103,182.176 141.180 C 182.410 142.840,182.648 143.527,183.383 144.674 C 185.339 147.722,185.901 148.928,185.901 150.071 C 185.901 152.359,186.997 152.980,189.946 152.363 C 191.129 152.116,191.922 152.081,192.653 152.246 C 195.242 152.827,203.623 145.385,203.309 142.783 C 203.135 141.341,203.510 140.621,204.776 139.970 C 206.887 138.884,207.358 137.487,206.357 135.281 C 205.885 134.240,205.882 134.168,206.300 133.633 C 206.541 133.326,207.187 132.487,207.735 131.769 C 208.384 130.921,209.321 130.118,210.410 129.480 C 213.186 127.851,213.489 127.267,213.406 123.696 C 213.357 121.584,213.222 120.502,212.942 119.959 C 210.295 114.842,212.219 110.170,219.494 104.043 C 221.988 101.944,222.139 101.736,224.467 97.208 C 225.960 94.305,226.326 93.376,226.326 92.482 C 226.326 90.623,226.251 90.568,224.628 91.221 C 219.932 93.112,217.805 92.914,216.642 90.480 C 216.097 89.338,215.396 88.461,214.000 87.175 C 212.696 85.973,211.868 84.961,211.359 83.947 C 210.952 83.135,210.263 81.999,209.828 81.423 C 209.324 80.756,208.965 79.917,208.838 79.114 C 208.728 78.417,208.253 77.211,207.778 76.419 C 206.611 74.475,203.288 68.370,203.060 67.749 C 202.958 67.474,203.368 67.794,203.970 68.461 L 205.064 69.672 205.234 68.897 C 205.473 67.811,205.760 67.931,206.218 69.308 C 206.435 69.959,207.548 71.746,208.692 73.279 C 209.978 75.000,210.983 76.643,211.325 77.580 C 211.628 78.413,212.259 79.573,212.726 80.159 C 214.785 82.738,215.793 84.477,216.091 85.964 C 216.614 88.566,217.180 89.582,218.108 89.582 C 219.812 89.582,225.837 86.826,227.385 85.339 C 227.937 84.809,228.738 84.247,229.166 84.091 C 231.522 83.229,232.848 81.896,235.629 77.594 L 236.074 76.905 235.005 76.010 C 234.417 75.517,233.431 74.743,232.813 74.290 C 231.949 73.656,231.673 73.282,231.612 72.666 C 231.506 71.582,231.217 71.651,229.645 73.137 C 228.113 74.586,226.093 74.515,226.072 73.012 C 226.062 72.251,225.617 72.001,225.103 72.467 C 224.422 73.083,223.942 72.841,223.573 71.696 C 223.404 71.171,222.868 70.091,222.382 69.294 C 221.638 68.076,221.535 67.740,221.733 67.173 C 222.227 65.763,223.627 66.404,224.955 68.648 C 225.826 70.121,228.314 71.247,230.016 70.938 L 231.382 70.691 232.578 71.753 C 233.992 73.008,235.989 73.313,240.861 73.017 C 243.639 72.849,244.322 73.062,244.817 74.254 C 245.018 74.739,247.153 76.107,247.710 76.107 C 248.481 76.107,248.437 76.457,247.617 76.830 L 246.950 77.134 247.716 77.900 C 248.276 78.459,248.732 78.674,249.410 78.697 C 250.339 78.727,250.565 78.545,250.895 77.500 C 251.201 76.528,251.615 77.592,251.782 79.781 C 251.961 82.136,251.990 82.218,255.037 89.009 C 255.979 91.108,256.869 93.271,257.016 93.815 C 258.159 98.062,261.510 94.125,261.510 88.534 L 261.510 86.329 264.442 83.402 C 266.055 81.791,267.683 80.275,268.060 80.032 C 268.489 79.755,268.746 79.369,268.746 79.002 C 268.746 78.175,269.213 77.873,271.486 77.232 C 273.735 76.597,273.805 76.619,274.819 78.264 C 275.169 78.832,275.802 79.544,276.226 79.846 C 277.200 80.539,278.472 82.734,278.476 83.725 C 278.481 85.435,279.476 85.977,280.708 84.940 C 281.686 84.118,282.121 84.289,282.481 85.639 C 282.638 86.229,283.095 87.485,283.495 88.429 C 284.194 90.079,284.216 90.248,284.061 92.800 L 283.900 95.455 285.030 96.381 C 286.014 97.187,286.246 97.575,286.823 99.371 C 287.801 102.419,289.809 104.803,291.397 104.803 C 292.537 104.803,290.484 99.981,288.482 97.956 C 285.993 95.438,285.123 93.687,285.459 91.870 C 285.599 91.110,285.714 90.116,285.714 89.661 C 285.714 88.274,287.409 89.166,289.783 91.803 C 290.525 92.628,290.879 92.841,291.405 92.780 C 292.036 92.706,292.077 92.763,292.077 93.694 C 292.077 95.084,292.716 95.154,293.905 93.892 C 294.409 93.356,295.230 92.672,295.729 92.371 C 298.131 90.920,297.282 86.934,293.830 83.465 C 291.791 81.416,291.473 80.655,292.180 79.512 C 293.380 77.571,295.762 77.346,296.325 79.121 C 296.477 79.597,296.557 79.562,297.402 78.648 C 298.022 77.978,298.677 77.566,299.439 77.368 C 305.122 75.889,305.941 75.175,307.284 70.527 C 307.982 68.109,308.106 66.627,307.611 66.621 C 306.872 66.612,306.612 66.221,306.964 65.650 C 307.273 65.148,307.210 65.026,306.143 64.057 C 305.507 63.479,304.743 62.591,304.445 62.082 C 304.147 61.573,303.603 60.939,303.236 60.671 C 302.323 60.006,302.669 59.059,304.253 57.891 L 305.438 57.018 304.747 56.717 C 303.900 56.349,302.371 56.306,302.037 56.641 C 301.759 56.919,300.134 56.159,299.317 55.369 C 298.824 54.892,298.830 54.881,300.315 53.553 C 301.991 52.053,302.315 52.035,302.687 53.415 C 303.030 54.689,303.239 54.773,304.400 54.105 C 305.598 53.415,306.536 53.756,307.090 55.082 C 307.300 55.584,307.734 56.021,308.237 56.235 C 309.343 56.706,310.019 57.500,310.815 59.265 C 311.186 60.088,311.518 60.797,311.553 60.840 C 311.655 60.968,314.111 59.671,314.277 59.402 C 314.718 58.690,313.081 56.693,310.592 54.906 C 309.205 53.909,309.202 53.900,310.201 53.331 C 310.907 52.929,310.966 52.803,310.838 51.959 C 310.578 50.249,311.336 49.291,312.950 49.286 L 314.286 49.283 315.034 47.785 C 316.058 45.739,316.168 40.943,315.220 39.756 C 314.910 39.369,314.202 38.458,313.646 37.733 C 312.002 35.588,310.908 34.936,308.946 34.929 C 307.562 34.924,305.174 34.263,305.179 33.886 C 305.185 33.330,306.812 29.694,307.249 29.256 C 308.073 28.432,313.249 28.045,315.467 28.641 C 317.465 29.178,317.991 28.916,318.020 27.370 C 318.055 25.485,318.478 25.253,320.625 25.944 C 322.610 26.582,323.144 26.502,323.144 25.568 C 323.144 24.656,324.096 24.827,324.688 25.845 C 325.086 26.527,325.098 26.720,324.798 27.592 C 324.612 28.131,324.267 29.174,324.031 29.911 L 323.601 31.251 324.526 32.593 C 325.854 34.522,330.512 38.729,331.209 38.630 C 331.797 38.546,331.885 36.890,331.373 35.543 C 331.201 35.091,331.243 34.896,331.549 34.724 C 332.227 34.345,331.026 31.792,329.757 30.913 C 326.706 28.800,326.653 28.405,329.295 27.431 C 330.917 26.833,331.152 26.805,331.890 27.115 C 332.802 27.498,333.703 27.133,333.977 26.269 C 334.187 25.608,335.069 25.155,336.482 24.982 C 338.364 24.752,338.065 24.303,335.246 23.126 C 332.871 22.134,332.796 22.080,333.687 22.006 C 334.730 21.920,334.746 21.900,334.320 21.218 C 333.758 20.318,334.398 20.392,338.906 21.755 C 340.001 22.086,340.839 22.198,341.359 22.084 L 342.150 21.910 341.597 21.322 C 340.257 19.896,339.196 19.388,337.908 19.559 C 336.978 19.683,336.434 19.603,335.559 19.216 C 334.932 18.939,333.427 18.500,332.213 18.240 C 330.999 17.980,329.129 17.535,328.058 17.250 C 326.380 16.804,323.847 16.384,319.464 15.825 C 318.427 15.693,317.941 16.154,318.653 16.594 C 319.318 17.005,318.781 17.152,317.842 16.817 C 317.182 16.581,315.223 16.361,312.664 16.236 C 309.833 16.097,308.265 15.910,307.645 15.639 C 307.036 15.372,305.371 15.165,302.529 15.005 C 299.276 14.821,298.019 14.649,297.013 14.252 C 293.658 12.927,287.390 12.598,287.840 13.771 C 288.083 14.406,286.718 14.801,284.980 14.599 C 284.031 14.489,283.034 14.538,282.275 14.733 L 281.075 15.040 278.493 13.696 L 275.912 12.352 273.639 12.425 C 269.152 12.570,264.740 12.395,262.988 12.001 C 262.189 11.822,261.445 11.853,260.172 12.121 C 257.971 12.584,257.884 12.465,259.611 11.360 C 261.934 9.875,261.084 9.153,256.701 8.888 C 254.197 8.737,251.273 8.083,250.405 7.479 C 250.044 7.227,248.872 6.956,247.162 6.728 C 245.605 6.520,244.210 6.194,242.296 5.591 C 240.926 5.160,239.009 5.133,238.603 5.540 M184.654 5.653 C 184.654 6.164,183.671 6.501,183.124 6.178 C 182.699 5.927,182.570 5.927,182.479 6.176 C 182.398 6.401,181.566 6.488,179.499 6.488 C 176.908 6.488,176.640 6.530,176.716 6.923 C 176.833 7.529,178.090 8.091,179.351 8.101 C 179.934 8.106,180.412 8.194,180.412 8.297 C 180.412 8.400,180.122 8.484,179.767 8.484 C 178.807 8.484,179.133 9.006,180.585 9.794 L 181.849 10.480 182.795 9.295 C 183.315 8.643,183.822 8.015,183.921 7.900 C 184.219 7.551,185.153 8.214,185.153 8.774 C 185.153 9.225,185.258 9.274,185.937 9.138 C 186.378 9.050,186.865 9.100,187.049 9.253 C 187.229 9.403,187.494 9.453,187.637 9.364 C 188.197 9.018,187.839 8.559,186.496 7.900 C 184.841 7.089,184.842 6.947,186.501 7.257 C 187.932 7.524,189.644 7.168,189.644 6.603 C 189.644 6.402,189.560 6.230,189.457 6.221 C 186.858 5.974,185.442 5.782,185.090 5.628 C 184.850 5.522,184.654 5.534,184.654 5.653 M93.418 8.921 C 92.720 9.038,91.660 10.165,91.968 10.464 C 92.610 11.087,99.927 11.312,101.201 10.749 C 102.898 9.998,102.341 9.740,99.011 9.736 C 97.052 9.733,96.019 9.612,95.143 9.282 C 94.486 9.035,93.710 8.873,93.418 8.921 M220.711 9.650 C 216.747 10.141,216.557 10.213,215.065 11.761 C 213.710 13.168,213.098 14.344,213.523 14.725 C 213.926 15.087,216.207 15.720,217.075 15.712 L 217.966 15.703 217.280 15.141 C 215.487 13.672,217.324 11.835,221.690 10.732 C 225.358 9.805,224.762 9.147,220.711 9.650 M64.629 11.199 C 61.846 12.120,59.646 13.697,60.271 14.322 C 60.812 14.863,61.058 14.836,63.221 14.003 C 64.366 13.562,65.043 13.405,64.970 13.596 C 64.903 13.770,65.106 13.980,65.426 14.071 L 66.001 14.234 65.409 14.566 L 64.817 14.898 65.409 15.056 C 65.735 15.143,66.310 15.216,66.687 15.218 C 67.741 15.223,67.502 15.719,66.438 15.735 C 65.923 15.743,65.054 15.829,64.507 15.926 L 63.511 16.102 65.128 16.804 C 67.411 17.794,68.704 17.896,70.668 17.242 C 72.058 16.780,72.453 16.743,73.535 16.975 C 74.667 17.218,74.950 17.180,76.446 16.580 C 78.358 15.815,78.414 15.712,77.224 15.144 L 76.345 14.725 76.850 13.736 C 77.744 11.983,77.183 11.692,75.416 12.991 L 74.378 13.755 74.212 13.095 C 74.077 12.556,73.949 12.468,73.517 12.613 C 73.226 12.711,72.707 12.789,72.364 12.786 C 71.362 12.778,68.185 12.296,68.871 12.256 C 69.214 12.236,69.653 12.119,69.847 11.997 C 70.657 11.484,65.944 10.763,64.629 11.199 M82.949 12.113 C 82.015 12.596,81.483 12.717,80.724 12.618 L 79.726 12.488 80.344 12.919 C 80.684 13.156,81.172 13.557,81.428 13.810 C 82.064 14.439,83.344 14.177,84.472 13.187 C 86.238 11.636,85.237 10.930,82.949 12.113 M87.353 11.826 C 86.463 12.148,85.850 12.820,86.162 13.132 C 86.333 13.303,90.025 12.616,90.274 12.366 C 91.032 11.609,88.996 11.232,87.353 11.826 M92.685 12.200 C 88.868 13.933,88.989 15.483,92.951 15.607 C 94.049 15.641,95.240 15.745,95.598 15.838 C 95.989 15.939,96.619 15.852,97.178 15.618 C 98.555 15.043,99.834 15.860,101.217 18.203 C 101.451 18.598,101.911 19.044,102.239 19.194 C 103.220 19.641,102.636 19.963,100.843 19.963 C 99.319 19.963,99.093 20.030,98.481 20.669 C 97.865 21.312,97.683 21.365,96.450 21.263 C 94.836 21.129,93.824 21.341,93.824 21.812 C 93.824 22.359,94.452 22.457,95.951 22.142 L 97.347 21.850 98.428 23.027 C 99.574 24.275,101.233 25.188,102.371 25.197 C 103.255 25.204,103.266 24.655,102.395 23.970 C 101.206 23.035,101.846 23.003,104.206 23.879 C 104.777 24.090,105.117 22.596,104.717 21.637 C 104.198 20.396,105.095 20.004,106.550 20.836 C 107.456 21.354,108.214 21.289,108.657 20.656 C 109.251 19.807,109.120 19.407,107.968 18.561 C 107.146 17.957,106.856 17.546,106.668 16.718 C 106.451 15.765,106.308 15.606,105.318 15.223 C 104.709 14.988,103.777 14.430,103.247 13.985 C 102.360 13.241,102.223 13.200,101.551 13.478 C 100.886 13.754,100.701 13.705,99.519 12.947 C 97.853 11.878,96.766 11.875,95.063 12.934 C 93.645 13.815,93.572 13.772,94.478 12.585 L 95.131 11.728 94.415 11.733 C 94.021 11.737,93.243 11.946,92.685 12.200 M83.780 14.864 C 82.462 15.550,82.424 15.617,83.000 16.253 C 83.586 16.901,83.303 17.321,81.933 17.835 C 81.268 18.085,80.435 18.491,80.083 18.737 C 79.465 19.168,79.416 19.167,78.715 18.707 C 78.176 18.353,77.561 18.234,76.346 18.245 C 75.442 18.253,74.224 18.131,73.638 17.973 C 72.022 17.538,69.626 18.283,68.786 19.482 L 68.419 20.006 68.254 19.487 C 67.901 18.373,67.449 18.188,65.510 18.364 C 63.771 18.521,62.734 18.199,63.740 17.813 C 64.328 17.587,64.208 17.218,63.546 17.218 C 63.224 17.218,62.410 17.040,61.736 16.824 C 58.787 15.875,53.043 15.711,49.359 16.470 C 46.277 17.105,45.697 17.096,42.465 16.367 C 34.412 14.552,29.985 14.435,24.470 15.892 C 23.157 16.239,21.135 16.735,19.975 16.995 C 17.409 17.570,17.269 17.692,18.075 18.650 L 18.710 19.405 17.954 19.718 C 17.538 19.890,16.322 20.051,15.250 20.076 C 13.319 20.121,11.788 20.657,11.549 21.372 C 11.397 21.828,13.700 22.263,14.706 21.968 C 15.621 21.701,15.871 21.763,15.605 22.194 C 15.288 22.706,13.928 23.239,11.684 23.728 C 8.488 24.426,8.032 24.703,7.937 26.005 C 7.872 26.891,7.722 27.151,6.987 27.643 C 5.523 28.622,6.378 29.426,8.501 29.068 C 10.384 28.750,8.965 29.653,4.429 31.662 C 0.654 33.334,2.979 33.204,7.112 31.512 C 8.621 30.894,10.699 30.081,11.728 29.704 C 12.757 29.328,14.314 28.659,15.186 28.217 C 16.472 27.566,16.952 27.444,17.715 27.573 C 18.398 27.688,19.163 27.557,20.500 27.096 L 22.343 26.460 24.413 26.954 C 25.551 27.226,26.671 27.450,26.903 27.453 C 27.134 27.455,28.166 27.957,29.195 28.568 C 30.225 29.180,31.229 29.776,31.427 29.893 C 31.816 30.122,32.278 33.711,31.948 33.936 C 31.476 34.259,31.158 35.303,31.301 36.064 C 31.390 36.537,31.346 36.960,31.199 37.051 C 30.708 37.355,30.949 37.896,32.174 39.236 C 33.765 40.977,33.925 41.600,33.051 42.639 C 32.453 43.350,32.349 43.391,32.082 43.025 C 31.562 42.315,30.872 42.735,29.999 44.293 C 29.538 45.116,28.565 46.575,27.837 47.536 C 27.108 48.497,26.313 49.676,26.070 50.156 C 25.827 50.636,25.359 51.383,25.031 51.815 C 23.814 53.416,24.541 60.563,25.967 61.016 C 27.013 61.348,27.698 62.585,27.698 64.142 C 27.698 65.134,27.886 66.041,28.276 66.930 C 28.668 67.823,28.822 68.570,28.754 69.249 C 28.666 70.139,28.755 70.341,29.549 71.064 C 30.234 71.688,30.443 72.072,30.443 72.713 C 30.443 73.330,30.696 73.832,31.416 74.640 C 32.599 75.968,32.931 75.785,32.251 74.181 C 31.973 73.525,31.618 72.378,31.461 71.633 C 31.305 70.888,30.771 69.274,30.274 68.046 C 29.565 66.296,29.419 65.677,29.595 65.180 C 30.088 63.783,31.056 64.424,31.595 66.503 C 31.808 67.325,32.422 68.797,32.959 69.775 C 33.497 70.753,33.936 71.683,33.936 71.843 C 33.936 72.002,34.515 72.887,35.222 73.808 C 36.958 76.071,37.239 76.808,37.039 78.575 L 36.876 80.010 38.075 81.065 C 39.256 82.104,45.898 85.590,46.698 85.590 C 46.919 85.590,47.504 85.421,47.996 85.215 C 49.343 84.653,49.573 84.726,51.124 86.205 C 52.845 87.847,55.070 88.952,56.264 88.758 C 57.025 88.634,57.118 88.696,57.527 89.604 C 57.770 90.142,58.119 90.708,58.303 90.860 C 58.486 91.013,58.747 91.545,58.882 92.044 C 59.474 94.234,65.314 97.351,65.728 95.699 C 65.916 94.954,66.893 94.637,67.772 95.037 C 68.253 95.256,68.351 95.443,68.232 95.915 C 68.150 96.245,68.195 96.585,68.334 96.670 C 68.635 96.856,69.017 99.378,68.904 100.430 C 68.799 101.407,68.099 102.749,66.708 104.637 C 64.569 107.541,64.099 109.132,65.168 109.842 L 65.708 110.200 65.044 111.178 C 63.938 112.804,64.110 113.534,66.213 116.137 C 66.604 116.621,67.243 117.801,67.633 118.760 C 68.023 119.718,68.891 121.321,69.562 122.322 C 70.233 123.323,71.102 124.736,71.493 125.462 C 72.097 126.582,72.505 126.960,74.188 127.957 C 79.426 131.062,79.656 131.549,79.880 139.972 C 79.992 144.190,80.198 147.372,80.447 148.721 C 80.671 149.931,80.841 152.223,80.844 154.057 C 80.846 155.825,80.956 157.678,81.088 158.174 C 81.220 158.671,81.391 159.485,81.468 159.984 C 81.556 160.553,81.986 161.320,82.619 162.039 C 83.192 162.690,83.670 163.513,83.724 163.943 C 83.777 164.359,83.994 164.947,84.206 165.250 C 84.889 166.225,84.487 167.935,83.575 167.935 C 83.086 167.935,83.377 168.614,84.094 169.145 C 84.546 169.479,85.248 170.529,85.860 171.786 C 87.413 174.981,89.040 176.557,90.851 176.622 C 92.672 176.689,93.280 176.150,92.823 174.877 C 92.569 174.172,92.603 173.828,93.050 172.560 C 93.764 170.535,93.738 169.597,92.954 169.083 C 91.655 168.232,91.460 167.584,92.183 166.520 C 92.537 165.999,92.826 165.317,92.826 165.004 C 92.826 164.691,92.966 164.210,93.138 163.936 C 93.409 163.502,93.363 163.364,92.787 162.879 C 91.298 161.624,91.376 160.681,92.916 161.324 C 93.407 161.529,93.854 161.697,93.911 161.697 C 94.179 161.697,94.581 160.212,94.518 159.452 C 94.468 158.845,94.557 158.581,94.822 158.541 C 95.028 158.510,95.735 158.414,96.392 158.327 C 99.528 157.914,100.139 155.345,97.644 153.060 C 96.609 152.112,96.710 152.054,98.463 152.586 C 99.888 153.018,100.908 153.063,101.548 152.720 C 102.132 152.407,105.031 147.699,105.350 146.545 C 105.483 146.060,105.823 145.222,106.105 144.682 C 106.521 143.884,106.592 143.400,106.487 142.088 C 106.358 140.484,106.362 140.473,107.244 139.745 C 108.795 138.467,111.076 137.369,112.230 137.346 C 114.668 137.297,116.521 132.973,116.633 127.075 C 116.682 124.535,116.745 124.190,117.294 123.456 C 122.093 117.040,122.582 114.402,119.199 113.172 C 118.538 112.932,117.528 112.354,116.953 111.888 C 115.111 110.393,110.278 109.309,109.691 110.259 C 109.373 110.772,109.046 110.556,109.046 109.833 C 109.046 109.013,108.532 108.474,107.235 107.932 C 106.035 107.430,106.055 107.427,104.779 108.292 C 103.358 109.255,102.424 109.336,103.537 108.400 C 104.420 107.656,104.488 107.292,103.848 106.714 C 103.152 106.084,102.736 106.201,101.208 107.459 C 99.323 109.011,99.166 108.668,100.902 106.793 C 102.533 105.031,102.499 105.200,101.660 103.076 C 100.531 100.218,98.760 98.815,96.281 98.815 C 94.580 98.815,93.068 98.072,91.921 96.671 C 91.426 96.068,90.377 95.143,89.590 94.617 C 88.280 93.743,88.203 93.642,88.683 93.431 C 89.318 93.152,89.380 92.242,88.772 92.125 C 88.486 92.070,88.248 92.272,88.081 92.711 C 87.875 93.253,87.720 93.348,87.269 93.211 C 86.963 93.117,85.811 92.948,84.709 92.835 C 82.592 92.617,81.236 92.169,80.176 91.335 C 78.837 90.282,76.669 91.376,76.965 92.955 C 77.111 93.736,76.650 94.533,76.271 94.155 C 75.980 93.863,76.097 92.336,76.482 91.415 C 77.129 89.866,76.657 89.603,75.209 90.707 C 74.758 91.051,73.966 91.472,73.448 91.642 C 72.755 91.871,72.254 92.315,71.552 93.325 C 70.336 95.074,69.883 95.293,68.913 94.603 C 68.076 94.007,66.814 93.922,65.341 94.364 C 62.973 95.073,61.673 93.128,62.092 89.505 C 62.606 85.058,62.734 85.230,58.952 85.302 C 56.172 85.355,56.232 85.549,57.891 81.871 C 59.495 78.317,59.514 77.854,58.053 77.854 C 56.301 77.854,55.519 78.249,55.002 79.395 C 54.445 80.630,53.185 81.510,51.520 81.829 C 49.240 82.264,48.037 81.199,47.135 77.947 L 46.696 76.362 47.804 73.058 C 49.068 69.290,49.066 69.292,51.850 67.758 C 54.284 66.417,54.533 66.382,56.594 67.094 C 58.215 67.654,58.521 67.618,59.109 66.801 C 59.828 65.803,60.938 65.586,62.525 66.132 C 63.313 66.403,64.258 66.625,64.624 66.625 C 65.679 66.625,66.376 67.564,66.376 68.983 C 66.376 71.658,67.496 73.506,68.425 72.362 C 68.892 71.787,68.918 71.516,68.767 68.746 C 68.554 64.812,69.416 63.527,73.857 61.157 C 75.949 60.041,76.595 59.237,76.850 57.435 C 77.111 55.589,77.326 55.157,77.674 55.779 C 77.899 56.181,77.964 56.150,78.326 55.472 C 79.095 54.027,81.753 52.148,84.462 51.135 C 85.589 50.713,85.952 50.435,86.284 49.739 C 86.723 48.819,88.813 47.653,92.237 46.419 C 94.368 45.651,95.101 45.858,93.387 46.743 C 91.008 47.972,91.927 48.642,94.518 47.568 C 95.303 47.242,96.338 46.849,96.818 46.694 C 97.299 46.539,98.020 46.149,98.422 45.827 L 99.153 45.242 97.739 45.359 C 95.246 45.566,94.009 44.251,95.306 42.774 C 96.882 40.979,95.202 40.599,91.984 42.022 C 88.947 43.365,89.641 42.450,92.797 40.951 C 94.961 39.922,95.129 39.885,98.480 39.680 C 101.996 39.465,102.973 39.234,105.247 38.082 C 106.701 37.345,107.548 36.542,107.548 35.900 C 107.548 34.929,105.662 34.341,104.516 34.955 C 103.868 35.302,103.545 34.994,104.118 34.575 C 104.661 34.177,104.664 33.872,104.135 32.863 C 103.766 32.161,103.558 30.791,103.551 29.015 C 103.550 28.711,103.441 28.176,103.308 27.828 L 103.068 27.195 101.457 28.298 C 98.709 30.179,97.733 29.983,98.001 27.606 C 98.328 24.701,92.646 23.658,90.910 26.303 C 90.474 26.968,89.783 27.863,89.375 28.291 C 88.774 28.921,88.638 29.271,88.666 30.116 C 88.707 31.400,88.167 32.049,85.765 33.601 C 84.376 34.498,83.979 34.909,83.566 35.876 C 82.060 39.401,79.344 39.069,80.594 35.512 C 81.167 33.882,81.124 33.796,79.431 33.194 C 74.736 31.524,73.751 30.967,72.994 29.553 L 72.500 28.632 73.781 27.454 C 74.486 26.806,76.028 25.804,77.210 25.227 C 78.391 24.650,79.537 23.903,79.757 23.567 C 80.059 23.107,80.380 22.956,81.064 22.953 C 81.961 22.949,84.755 22.378,84.981 22.152 C 85.045 22.088,84.853 21.724,84.554 21.344 L 84.011 20.654 85.031 20.826 C 85.681 20.936,86.260 20.886,86.628 20.690 C 86.945 20.520,88.146 20.295,89.298 20.190 C 91.517 19.988,92.479 19.484,93.655 17.909 C 94.959 16.163,92.461 15.841,90.293 17.476 C 88.305 18.975,87.140 19.141,87.844 17.825 C 88.232 17.100,87.847 16.620,87.034 16.814 C 86.357 16.976,86.056 16.384,86.238 15.249 C 86.441 13.976,85.707 13.860,83.780 14.864 M79.538 16.489 C 78.997 16.804,78.970 17.433,79.489 17.632 C 80.001 17.828,81.847 16.986,81.847 16.556 C 81.847 16.152,80.199 16.104,79.538 16.489 M151.216 20.462 C 150.873 20.572,149.982 20.673,149.237 20.686 C 146.958 20.728,144.085 22.707,146.303 22.707 C 146.620 22.707,147.097 22.872,147.363 23.074 C 148.260 23.752,150.914 23.314,153.026 22.138 C 154.184 21.494,154.204 21.133,153.113 20.615 C 152.185 20.174,152.128 20.170,151.216 20.462 M86.357 21.856 C 85.122 22.896,85.326 23.240,87.149 23.190 C 88.007 23.166,89.002 23.226,89.360 23.324 C 90.827 23.723,90.433 22.185,88.904 21.546 C 87.748 21.063,87.224 21.127,86.357 21.856 M185.402 27.544 C 185.402 27.898,186.261 28.254,186.511 28.004 C 186.865 27.649,186.594 27.199,186.026 27.199 C 185.661 27.199,185.402 27.342,185.402 27.544 M12.399 30.218 C 11.199 30.500,10.429 30.907,10.593 31.172 C 10.790 31.491,13.475 30.657,13.475 30.277 C 13.475 30.094,13.447 29.955,13.412 29.969 C 13.378 29.983,12.922 30.095,12.399 30.218 M161.216 30.601 C 160.666 31.300,160.607 31.671,160.852 32.893 C 160.969 33.480,161.155 33.677,161.646 33.735 C 162.757 33.867,163.155 35.312,162.215 35.798 C 161.653 36.089,160.699 37.363,160.699 37.823 C 160.699 37.859,161.036 37.963,161.447 38.054 C 162.450 38.274,162.390 38.514,161.198 39.052 C 159.568 39.787,160.033 39.875,163.063 39.406 C 166.063 38.943,166.438 38.827,166.438 38.367 C 166.438 38.212,166.674 37.834,166.963 37.527 C 167.571 36.880,167.411 36.432,166.570 36.432 C 166.108 36.432,165.803 36.101,165.130 34.872 C 164.661 34.014,163.929 33.077,163.504 32.788 L 162.731 32.264 163.275 31.699 C 163.692 31.264,163.738 31.104,163.475 31.006 C 163.286 30.937,162.921 30.669,162.664 30.412 C 162.044 29.792,161.831 29.820,161.216 30.601 M157.080 34.083 C 155.453 34.944,155.316 35.086,155.686 35.532 C 155.910 35.802,155.921 36.034,155.725 36.399 C 154.829 38.075,155.516 38.603,157.539 37.793 C 159.035 37.194,159.165 37.080,159.324 36.228 C 159.418 35.722,159.607 35.175,159.742 35.011 C 160.836 33.687,159.025 33.056,157.080 34.083 M313.911 36.293 C 313.911 36.491,314.503 37.361,315.226 38.227 C 317.048 40.408,317.670 41.292,318.727 43.203 C 319.636 44.845,319.993 45.165,320.919 45.165 C 321.602 45.165,321.526 44.937,320.383 43.554 C 318.958 41.830,318.707 41.327,319.380 41.540 C 320.488 41.892,319.852 40.928,317.923 39.333 C 316.836 38.433,315.644 37.300,315.274 36.815 C 314.583 35.910,313.911 35.652,313.911 36.293 M103.306 40.897 C 100.834 43.190,100.823 43.123,103.701 43.323 C 108.050 43.626,109.512 42.422,106.592 40.941 C 105.859 40.570,105.558 40.277,105.656 40.034 C 105.736 39.837,105.870 39.507,105.953 39.301 C 106.300 38.443,105.307 39.042,103.306 40.897 M29.792 39.531 C 29.601 40.028,30.063 40.797,30.918 41.405 C 32.628 42.623,33.353 41.538,31.840 40.025 C 30.959 39.143,30.027 38.919,29.792 39.531 M72.500 42.534 C 72.868 42.902,73.113 43.435,73.113 43.868 C 73.113 44.937,73.828 45.466,75.017 45.276 C 75.801 45.151,76.078 45.218,76.444 45.623 C 77.118 46.368,76.888 47.021,75.918 47.115 C 75.435 47.162,75.007 47.385,74.854 47.671 C 74.408 48.504,73.662 48.749,72.962 48.291 L 72.346 47.887 72.854 47.241 C 73.543 46.365,73.500 45.914,72.726 45.914 C 71.399 45.914,70.218 46.880,69.063 48.909 C 68.167 50.483,67.490 51.062,67.012 50.665 C 66.035 49.855,68.942 46.125,71.023 45.520 C 71.761 45.305,72.364 44.983,72.364 44.804 C 72.364 44.293,68.716 43.924,67.315 44.293 C 66.940 44.392,66.443 44.400,66.210 44.311 C 65.426 44.010,67.145 42.767,68.922 42.349 C 71.234 41.806,71.802 41.835,72.500 42.534 M222.590 44.592 C 223.922 45.511,224.216 46.383,223.140 46.225 C 221.417 45.972,220.490 47.898,221.830 48.948 C 222.239 49.269,222.917 49.797,223.336 50.120 C 223.790 50.470,224.297 50.656,224.588 50.580 C 224.917 50.494,225.243 50.662,225.577 51.086 C 226.291 51.994,226.213 52.402,225.328 52.402 C 224.397 52.402,224.398 52.517,225.339 54.002 C 227.422 57.286,226.044 58.883,222.616 57.160 L 220.619 56.156 220.655 54.294 C 220.690 52.442,220.684 52.425,219.543 50.955 C 218.912 50.143,218.258 49.209,218.090 48.881 C 217.921 48.553,217.544 48.094,217.251 47.860 L 216.719 47.436 217.830 46.302 C 219.711 44.382,221.403 43.774,222.590 44.592 M320.898 46.550 C 320.898 46.626,321.081 47.040,321.303 47.470 C 321.615 48.074,321.644 48.356,321.428 48.702 C 321.012 49.369,321.086 50.010,321.665 50.746 C 322.321 51.580,322.645 51.582,322.645 50.751 C 322.645 50.119,322.679 50.104,323.781 50.270 C 324.812 50.424,324.985 50.373,325.661 49.712 C 326.524 48.868,326.438 48.742,324.517 48.037 C 323.830 47.785,322.850 47.317,322.338 46.996 C 321.439 46.433,320.898 46.265,320.898 46.550 M79.978 47.915 C 80.221 48.308,78.424 48.973,77.907 48.682 C 77.541 48.475,77.604 48.387,78.353 48.060 C 79.394 47.607,79.767 47.574,79.978 47.915 M75.359 49.919 C 75.359 50.225,73.444 51.141,72.786 51.149 C 72.192 51.156,72.468 50.737,73.452 50.137 C 74.302 49.619,75.359 49.498,75.359 49.919 M174.763 50.031 C 174.565 50.547,174.833 51.154,175.259 51.154 C 175.637 51.154,175.907 50.482,175.734 49.969 C 175.588 49.536,174.937 49.578,174.763 50.031 M174.419 52.282 C 173.955 52.841,174.410 54.251,175.086 54.349 C 175.475 54.405,175.638 54.263,175.729 53.787 C 176.026 52.234,175.224 51.312,174.419 52.282 M322.895 52.418 C 322.895 52.701,323.139 53.502,323.439 54.198 C 324.227 56.030,322.015 58.890,319.809 58.890 C 319.018 58.890,316.656 60.194,316.656 60.631 C 316.656 60.976,317.611 61.093,318.584 60.867 C 320.381 60.450,321.060 60.571,321.732 61.429 L 322.352 62.221 322.729 61.319 C 323.042 60.569,323.268 60.387,324.061 60.244 C 326.379 59.824,326.965 58.965,326.289 56.980 C 326.069 56.334,325.889 55.382,325.889 54.863 C 325.889 54.110,325.695 53.716,324.929 52.911 C 323.869 51.796,322.895 51.560,322.895 52.418 M167.735 53.450 C 167.331 53.854,167.356 54.398,167.780 54.398 C 168.240 54.398,168.767 53.736,168.566 53.411 C 168.355 53.070,168.104 53.082,167.735 53.450 M179.726 55.802 C 178.959 56.134,181.008 57.600,181.808 57.293 C 182.265 57.118,182.271 55.895,181.815 55.895 C 181.627 55.895,181.149 55.844,180.755 55.781 C 180.360 55.718,179.897 55.727,179.726 55.802 M203.493 59.139 C 203.409 59.276,203.118 59.389,202.847 59.389 C 202.364 59.389,201.920 60.019,202.203 60.303 C 202.597 60.697,204.367 59.731,204.367 59.121 C 204.367 58.811,203.688 58.825,203.493 59.139 M191.391 59.257 C 191.391 59.593,193.005 60.137,193.999 60.137 C 195.248 60.137,195.493 59.762,194.494 59.382 C 193.848 59.137,191.391 59.038,191.391 59.257 M319.293 61.466 C 318.977 61.698,318.893 61.961,319.013 62.340 C 319.320 63.307,320.399 62.817,320.399 61.709 C 320.399 61.066,319.970 60.971,319.293 61.466 M316.157 62.122 C 316.157 62.391,316.430 63.012,316.763 63.503 C 317.096 63.994,317.412 64.525,317.464 64.682 C 317.517 64.839,317.749 64.895,317.981 64.806 C 318.625 64.559,318.507 63.294,317.757 62.402 C 317.017 61.523,316.157 61.372,316.157 62.122 M70.205 70.753 C 70.123 70.965,70.132 71.214,70.224 71.306 C 70.429 71.510,71.174 71.068,71.310 70.662 C 71.458 70.219,70.376 70.308,70.205 70.753 M71.907 70.882 C 71.952 71.196,72.140 71.501,72.323 71.562 C 72.549 71.636,72.629 71.489,72.572 71.102 C 72.527 70.788,72.339 70.483,72.156 70.422 C 71.930 70.348,71.850 70.495,71.907 70.882 M69.967 72.470 C 69.892 72.665,69.955 73.058,70.108 73.343 C 70.437 73.958,71.249 74.068,71.019 73.467 C 70.935 73.250,70.867 72.857,70.867 72.593 C 70.867 72.039,70.169 71.943,69.967 72.470 M308.867 73.550 C 307.850 74.715,307.812 75.790,308.759 76.576 C 309.308 77.031,309.566 76.783,309.892 75.485 C 310.369 73.594,309.786 72.495,308.867 73.550 M64.453 75.858 C 63.098 76.141,62.383 76.532,62.383 76.989 C 62.383 77.447,62.425 77.446,64.052 76.933 C 65.211 76.568,65.516 76.556,66.320 76.844 C 67.818 77.381,69.876 78.794,69.726 79.184 C 69.538 79.675,72.683 80.074,74.049 79.732 C 74.987 79.497,74.702 79.178,72.466 77.959 C 68.757 75.937,66.682 75.393,64.453 75.858 M76.419 76.020 C 75.835 76.261,76.105 76.606,76.877 76.606 C 77.381 76.606,77.610 76.499,77.542 76.294 C 77.427 75.950,76.901 75.821,76.419 76.020 M74.093 77.251 C 73.805 77.599,73.852 77.637,74.480 77.563 C 74.874 77.517,75.242 77.339,75.298 77.168 C 75.447 76.715,74.483 76.782,74.093 77.251 M75.902 80.786 C 75.980 81.448,75.933 81.477,74.610 81.608 C 73.370 81.730,73.298 81.768,73.862 82.005 C 75.480 82.684,81.297 82.091,81.036 81.273 C 80.676 80.145,75.773 79.680,75.902 80.786 M295.692 80.552 C 294.822 81.256,295.494 82.599,296.520 82.205 C 296.881 82.066,297.692 80.800,297.692 80.373 C 297.692 79.934,296.301 80.058,295.692 80.552 M85.007 81.514 C 84.691 81.830,84.843 82.096,85.340 82.096 C 85.617 82.096,85.839 81.930,85.839 81.722 C 85.839 81.342,85.311 81.210,85.007 81.514 M68.917 82.034 C 68.980 82.363,69.292 82.489,70.183 82.546 C 71.418 82.626,71.736 82.312,70.884 81.855 C 70.058 81.413,68.821 81.525,68.917 82.034 M82.252 81.981 C 82.168 82.199,82.264 82.426,82.475 82.507 C 83.049 82.727,84.092 82.378,84.092 81.967 C 84.092 81.449,82.451 81.462,82.252 81.981 M310.199 82.390 C 309.453 84.317,309.362 85.562,309.902 86.436 C 310.753 87.813,312.324 89.096,313.105 89.052 C 313.480 89.031,314.095 89.097,314.473 89.200 C 315.047 89.356,315.159 89.309,315.159 88.910 C 315.159 88.245,314.677 87.835,313.895 87.835 C 312.774 87.835,311.839 86.911,312.029 85.990 C 312.463 83.884,312.454 83.721,311.863 82.846 C 311.139 81.776,310.504 81.602,310.199 82.390 M310.917 89.419 C 310.917 89.756,311.684 90.580,311.997 90.580 C 312.334 90.580,312.152 89.898,311.708 89.496 C 311.155 88.995,310.917 88.972,310.917 89.419 M315.658 90.379 C 315.658 90.789,316.924 92.077,317.327 92.077 C 317.859 92.077,317.703 91.445,316.997 90.739 C 316.306 90.048,315.658 89.874,315.658 90.379 M312.557 91.498 C 312.280 92.219,313.108 92.817,313.552 92.217 C 313.750 91.950,313.911 91.585,313.911 91.406 C 313.911 90.927,312.745 91.007,312.557 91.498 M315.409 92.258 C 315.409 92.836,316.051 93.764,316.288 93.527 C 316.524 93.291,316.068 92.006,315.705 91.885 C 315.542 91.831,315.409 91.999,315.409 92.258 M308.581 93.314 C 307.429 94.546,307.114 95.321,307.766 95.321 C 308.277 95.321,310.168 93.164,310.168 92.582 C 310.168 91.814,309.845 91.963,308.581 93.314 M313.833 92.987 C 313.440 93.380,313.653 94.611,314.099 94.525 C 314.395 94.468,314.535 94.208,314.535 93.717 C 314.535 93.011,314.179 92.641,313.833 92.987 M317.405 93.783 C 317.405 94.490,315.928 95.571,314.961 95.571 C 314.283 95.571,313.916 95.697,313.813 95.966 C 313.538 96.682,313.653 96.821,314.470 96.757 C 315.203 96.700,315.337 96.804,315.905 97.878 C 316.514 99.029,316.897 99.244,317.754 98.915 C 318.060 98.797,318.087 98.658,317.879 98.269 C 317.537 97.631,317.795 97.379,318.403 97.759 C 319.036 98.154,319.166 97.869,318.899 96.677 C 318.507 94.934,317.405 92.799,317.405 93.783 M261.859 94.709 C 261.339 96.780,262.046 98.760,263.172 98.387 C 264.211 98.043,264.245 96.817,263.258 95.259 C 262.409 93.918,262.089 93.793,261.859 94.709 M306.285 98.587 C 305.882 99.011,305.084 99.634,304.512 99.971 C 303.941 100.309,303.174 100.977,302.808 101.456 C 302.442 101.936,301.707 102.617,301.173 102.970 C 300.640 103.323,300.132 103.834,300.046 104.106 C 299.916 104.515,299.745 104.573,299.054 104.444 C 297.549 104.161,297.352 105.198,298.325 108.280 C 299.071 110.640,299.222 110.754,302.024 111.067 C 303.141 111.191,304.474 111.361,304.986 111.444 L 305.917 111.594 307.045 109.278 C 307.665 108.003,308.172 106.820,308.172 106.648 C 308.172 106.476,308.500 106.101,308.901 105.816 L 309.630 105.297 308.861 103.806 L 308.093 102.316 308.905 101.010 L 309.716 99.704 308.704 98.760 C 307.478 97.617,307.225 97.599,306.285 98.587 M280.973 99.666 C 280.973 100.034,282.584 102.184,283.306 102.778 C 283.895 103.264,286.947 107.850,287.975 109.794 C 289.855 113.352,292.298 115.069,293.432 113.628 C 294.394 112.405,293.993 111.139,291.899 108.796 C 291.225 108.041,290.608 107.107,290.530 106.720 C 290.433 106.244,289.853 105.588,288.736 104.688 C 287.829 103.956,286.525 102.779,285.839 102.070 C 283.879 100.047,280.973 98.611,280.973 99.666 M320.846 103.743 C 320.284 104.389,320.073 106.426,320.529 106.804 C 321.279 107.426,321.707 106.899,321.526 105.578 C 321.419 104.799,321.455 104.298,321.627 104.192 C 322.010 103.955,321.961 103.306,321.561 103.306 C 321.376 103.306,321.054 103.503,320.846 103.743 M316.532 104.870 C 316.248 105.041,315.121 105.172,313.923 105.174 C 311.476 105.178,310.895 105.661,310.548 107.975 C 310.450 108.629,310.202 109.489,309.996 109.886 C 309.759 110.345,309.682 110.893,309.785 111.387 C 309.874 111.815,309.986 112.541,310.033 113.001 C 310.147 114.104,310.469 114.409,311.140 114.051 C 311.733 113.733,311.768 113.516,311.420 112.303 C 311.055 111.031,311.826 110.151,312.370 111.217 C 313.577 113.581,315.041 113.284,314.036 110.879 C 313.505 109.608,313.567 109.157,314.348 108.588 C 315.252 107.929,314.933 107.668,313.626 108.000 C 312.410 108.308,311.666 108.041,311.666 107.296 C 311.666 106.560,312.752 105.961,313.724 106.162 C 316.076 106.647,316.309 106.628,316.870 105.916 C 317.740 104.810,317.559 104.251,316.532 104.870 M325.452 107.853 C 324.654 108.238,324.747 108.464,325.951 109.071 C 327.294 109.748,327.264 109.714,326.903 110.149 C 326.244 110.944,326.681 111.591,328.128 111.959 C 330.383 112.534,332.919 114.033,333.500 115.133 L 333.999 116.079 333.437 116.460 C 332.563 117.055,332.728 117.529,333.812 117.534 C 334.433 117.537,335.117 117.789,335.845 118.283 C 337.474 119.386,338.484 119.308,339.620 117.989 C 340.794 116.626,341.476 116.771,343.356 118.782 C 344.746 120.269,346.159 121.083,347.910 121.405 C 349.166 121.637,349.089 121.330,347.591 120.145 C 345.493 118.485,344.321 116.817,344.521 115.775 C 344.770 114.471,341.911 112.248,337.813 110.560 C 336.539 110.035,334.980 109.378,334.350 109.101 L 333.204 108.598 331.979 109.350 C 331.306 109.763,330.495 110.340,330.177 110.631 L 329.599 111.160 329.141 110.554 C 328.890 110.221,328.557 109.522,328.401 109.002 C 327.991 107.633,326.839 107.184,325.452 107.853 M349.609 111.530 C 350.998 112.794,351.341 112.991,351.341 112.523 C 351.341 111.688,349.692 110.293,348.707 110.293 C 348.388 110.293,348.659 110.664,349.609 111.530 M320.898 110.783 C 320.898 111.234,321.942 111.588,322.796 111.428 C 324.306 111.144,323.680 110.543,321.876 110.543 C 321.338 110.543,320.898 110.651,320.898 110.783 M348.991 113.558 C 348.453 113.962,347.582 114.362,347.057 114.446 C 345.941 114.625,345.854 114.842,346.737 115.244 C 347.808 115.732,348.468 115.575,349.553 114.574 C 351.276 112.982,350.830 112.176,348.991 113.558 M293.450 115.281 C 292.478 115.900,294.434 116.971,296.612 117.011 C 297.184 117.022,298.588 117.249,299.731 117.517 C 304.500 118.633,306.905 118.247,303.540 116.906 C 302.848 116.630,301.979 116.205,301.608 115.962 C 301.060 115.604,300.634 115.550,299.357 115.681 C 298.150 115.805,297.600 115.748,297.001 115.438 C 296.145 114.996,294.043 114.902,293.450 115.281 M311.183 117.764 C 310.242 118.359,312.265 119.106,313.517 118.626 C 314.190 118.367,313.956 118.099,312.803 117.809 C 311.491 117.478,311.628 117.482,311.183 117.764 M306.841 117.946 C 306.350 118.436,306.737 118.777,307.783 118.777 C 308.930 118.777,309.491 118.385,308.890 118.005 C 308.484 117.747,307.080 117.707,306.841 117.946 M315.758 118.877 C 314.156 120.479,314.722 120.676,317.248 119.396 C 318.191 118.919,319.145 118.526,319.369 118.524 C 319.722 118.521,319.727 118.489,319.401 118.278 C 318.484 117.685,316.648 117.987,315.758 118.877 M309.919 119.531 C 309.919 119.872,311.119 120.405,311.354 120.170 C 311.570 119.955,310.728 119.276,310.246 119.276 C 310.066 119.276,309.919 119.391,309.919 119.531 M337.036 122.734 C 336.819 123.277,336.512 124.490,336.354 125.429 C 336.051 127.234,335.321 128.758,334.307 129.705 L 333.694 130.277 331.739 128.956 C 330.664 128.230,329.556 127.322,329.278 126.939 L 328.770 126.243 329.327 125.192 C 330.271 123.409,330.058 123.035,327.805 122.530 C 325.609 122.038,321.647 124.207,321.647 125.901 C 321.647 126.878,320.990 126.919,319.862 126.013 C 318.916 125.252,318.793 125.219,317.920 125.480 C 316.832 125.806,313.911 128.528,313.911 129.216 C 313.911 129.574,313.760 129.648,313.200 129.566 C 312.578 129.475,312.407 129.601,311.837 130.573 C 310.879 132.208,309.677 133.154,308.138 133.484 C 306.623 133.809,302.689 135.323,301.514 136.034 C 300.652 136.555,299.775 138.591,300.016 139.513 C 300.087 139.785,300.029 141.200,299.887 142.659 C 299.700 144.580,299.707 145.787,299.914 147.041 C 300.208 148.816,299.483 151.466,298.704 151.466 C 298.559 151.466,298.440 151.729,298.440 152.050 C 298.440 153.144,300.577 153.578,302.340 152.841 C 302.829 152.637,304.546 152.197,306.157 151.864 C 307.767 151.531,309.750 150.979,310.563 150.637 C 315.769 148.445,319.723 148.738,321.140 151.418 C 322.046 153.130,322.018 153.115,322.902 152.371 C 324.867 150.718,325.533 150.713,324.350 152.361 C 323.524 153.510,323.539 154.109,324.374 153.353 C 324.985 152.800,325.530 154.391,325.265 155.957 C 325.009 157.473,327.558 158.797,329.122 157.960 C 329.610 157.698,329.774 157.747,330.392 158.339 L 331.101 159.018 332.281 158.236 C 333.109 157.687,333.758 157.455,334.459 157.455 C 335.401 157.455,335.593 157.311,337.881 154.897 C 339.214 153.490,340.546 152.115,340.840 151.840 C 344.942 148.019,345.842 146.575,346.449 142.842 L 346.811 140.611 345.615 138.865 C 344.957 137.904,344.055 136.388,343.610 135.496 C 343.166 134.604,342.350 133.283,341.798 132.560 C 340.869 131.344,340.806 131.161,340.950 130.111 C 341.157 128.595,340.747 126.895,339.827 125.460 C 339.411 124.812,338.868 123.745,338.620 123.089 C 338.042 121.565,337.549 121.454,337.036 122.734 M223.398 123.893 C 222.699 125.251,220.728 127.142,219.351 127.777 C 217.734 128.522,217.592 128.798,217.592 131.209 C 217.592 133.110,217.516 133.446,216.812 134.678 C 215.214 137.471,216.259 140.981,218.584 140.630 C 220.554 140.333,220.627 140.199,223.182 132.231 C 224.951 126.712,225.115 125.554,224.364 123.893 L 223.912 122.895 223.398 123.893 M361.073 132.714 C 361.073 133.963,364.048 137.362,364.632 136.778 C 364.803 136.606,364.553 136.147,363.855 135.354 C 363.288 134.710,362.515 133.693,362.136 133.093 C 361.333 131.822,361.073 131.729,361.073 132.714 M364.911 154.813 C 365.104 156.700,364.807 157.544,363.804 157.960 C 362.711 158.412,362.234 159.078,362.401 159.915 C 362.508 160.449,362.417 160.760,362.059 161.084 C 361.469 161.618,361.424 162.196,361.973 162.196 C 362.193 162.196,363.542 161.363,364.969 160.344 C 366.397 159.326,367.661 158.456,367.779 158.411 C 368.422 158.164,368.358 157.138,367.707 157.262 C 366.743 157.446,365.814 156.270,365.814 154.865 C 365.814 153.860,365.488 153.213,364.981 153.213 C 364.843 153.213,364.814 153.866,364.911 154.813 M327.810 161.356 C 327.714 161.452,327.636 161.843,327.636 162.226 C 327.636 162.608,327.503 163.211,327.342 163.566 C 326.518 165.374,328.501 165.213,330.619 163.299 C 332.000 162.052,331.924 161.795,330.114 161.590 C 329.281 161.496,328.461 161.365,328.292 161.300 C 328.123 161.235,327.906 161.261,327.810 161.356 M357.580 162.231 C 356.825 162.793,354.523 164.069,352.464 165.068 C 348.652 166.917,347.672 167.616,347.934 168.300 C 348.359 169.405,351.545 168.513,354.140 166.562 C 354.961 165.945,355.829 165.440,356.068 165.440 C 356.308 165.440,356.718 165.201,356.979 164.910 C 357.241 164.619,358.050 164.043,358.778 163.631 C 359.981 162.950,360.095 162.811,360.026 162.102 C 359.916 160.977,359.214 161.014,357.580 162.231 M100.716 174.809 C 100.510 175.346,100.732 175.671,101.304 175.671 C 101.559 175.671,101.818 175.811,101.880 175.983 C 102.036 176.412,103.930 175.431,103.930 174.922 C 103.930 174.348,100.934 174.242,100.716 174.809 M92.965 176.974 C 91.713 178.762,93.843 180.020,97.567 179.693 L 99.439 179.529 98.316 179.004 C 97.698 178.715,96.409 178.015,95.450 177.449 C 93.415 176.246,93.467 176.256,92.965 176.974"/></g></svg>